<svg xmlns="http://www.w3.org/2000/svg" viewBox="0 0 342.69 264.39"><defs><style>.cls-1{isolation:isolate;}.cls-2{opacity:0.37;}.cls-3{fill:#3d82fc;}.cls-4{fill:#adadf2;}.cls-5{fill:#efba26;}.cls-6{fill:#eae6ff;}.cls-7{fill:#bbc9e7;}.cls-8{fill:#8784ef;}.cls-31,.cls-9{fill:#1544ad;}.cls-10,.cls-45,.cls-53{fill:none;}.cls-10{stroke:#1544ad;stroke-width:1.5px;}.cls-10,.cls-53{stroke-miterlimit:10;}.cls-11{fill:#154ea0;}.cls-12{fill:#5c96fc;}.cls-13,.cls-26{fill:#c2d5f9;}.cls-14,.cls-28,.cls-29,.cls-36{opacity:0.35;}.cls-15,.cls-57{fill:#fff;}.cls-16,.cls-49{opacity:0.25;}.cls-16,.cls-19,.cls-21,.cls-26,.cls-28,.cls-29,.cls-36,.cls-49{mix-blend-mode:multiply;}.cls-17{fill:#fca70c;}.cls-18{fill:#b1affd;}.cls-19{opacity:0.15;}.cls-20{opacity:0.26;}.cls-21{opacity:0.62;}.cls-22{fill:#d5dbda;}.cls-23{fill:#efefef;}.cls-24{fill:#7a7ae5;}.cls-25{fill:#cfcfff;}.cls-26{opacity:0.55;}.cls-27{fill:#8787c6;}.cls-28,.cls-30{fill:#1c5ed3;}.cls-31{opacity:0.51;}.cls-32{fill:#9090f4;}.cls-33,.cls-53,.cls-57{opacity:0.45;}.cls-34{fill:#e2deff;}.cls-35{fill:#f9c110;}.cls-36,.cls-37{fill:#5851bc;}.cls-38{fill:#ffb9b0;}.cls-39{fill:#648fed;}.cls-40{fill:#f2f2f2;}.cls-41{fill:#6390e0;}.cls-42{fill:#c4c4f7;}.cls-43{fill:#bbbbf2;}.cls-44{fill:#a4bdf4;}.cls-45{stroke:#c4c4f7;stroke-linecap:round;stroke-linejoin:round;stroke-width:0.75px;}.cls-46{fill:#ed9c80;}.cls-47{fill:#38287c;}.cls-48{fill:#453087;}.cls-49,.cls-52{fill:#ce4a30;}.cls-50{fill:#a4a4f7;}.cls-51{fill:#7a74d1;}.cls-53{stroke:#a4a4f7;}.cls-54{fill:#483a99;}.cls-55{opacity:0.68;}.cls-56,.cls-59{fill:#2264c4;}.cls-58{fill:#6398f7;}.cls-59{opacity:0.56;}.cls-60{fill:#97bcfc;}.cls-61{fill:#9aa3f4;}.cls-62{fill:#f2a181;}.cls-63{fill:#5e5dbb;}.cls-64{fill:#3f7bd1;}.cls-65{fill:#587df4;}.cls-66{fill:#4e69f2;}.cls-67{fill:#050316;}.cls-68{fill:#ffbe9d;}.cls-69{fill:#0f1e49;}.cls-70{fill:#e9e6ff;}.cls-71{fill:#e0d9ff;}.cls-72{opacity:0.3;}.cls-73{fill:#3939d3;}.cls-74{fill:#fefefe;}</style></defs><title>Fichier 7 1nav</title><g class="cls-1"><g id="Calque_2" data-name="Calque 2"><g id="Calque_1-2" data-name="Calque 1"><g class="cls-2"><path class="cls-3" d="M339.9,158.21C334,141.67,324.64,136.64,315.76,126c-10.85-13-18.16-22.36-15.35-39C305,59.8,307-8.08,234.92.79c-25.83,3.18-46.24,23-61.08,42.73-12.63,16.81-35.36,18.29-53.65,22.21C97.71,70.55,74.82,77.82,54,88.48,11.2,110.43-1.59,142,.15,182.36c.53,12.2,2.25,31.41,22.86,53.89,27.81,30.34,68.22,34.41,116.86,20.47,11.13-3.19,21.66-8.19,32.61-12a153.89,153.89,0,0,1,35.19-7.64c27.94-2.7,56.9,2.18,83.69-6.16a88.31,88.31,0,0,0,37.43-23.22C341.61,194.35,346.16,175.65,339.9,158.21Z"/></g><path class="cls-4" d="M23,220.48c0,4,50.6,7.22,113,7.22s113-3.24,113-7.22-50.6-7.22-113-7.22S23,216.49,23,220.48Z"/><ellipse class="cls-4" cx="63.29" cy="229.4" rx="28.69" ry="4.52"/><ellipse class="cls-4" cx="282.83" cy="230.34" rx="48.14" ry="3.58"/><polygon class="cls-5" points="34.3 170.88 32.45 196.76 57.14 196.76 55.44 170.83 34.3 170.88"/><path class="cls-6" d="M39.2,173.15h0a.79.79,0,0,1,.85-.72h0a.73.73,0,1,1,0,1.43h0A.79.79,0,0,1,39.2,173.15Zm.85-.45a.46.46,0,1,0,0,.89h0a.46.46,0,1,0,0-.89Zm-.71.44h0Z"/><path class="cls-6" d="M47.61,173.13h0a.66.66,0,0,1,.2-.46.91.91,0,0,1,.65-.25h0a.79.79,0,0,1,.85.71.66.66,0,0,1-.26.52.93.93,0,0,1-.59.2h0A.79.79,0,0,1,47.61,173.13Zm.84-.44a.64.64,0,0,0-.45.17.38.38,0,0,0-.12.27h0a.52.52,0,0,0,.57.44h0a.66.66,0,0,0,.42-.14.4.4,0,0,0,.16-.3.52.52,0,0,0-.57-.44Z"/><path class="cls-6" d="M44,178.36h.24a4.54,4.54,0,0,0,3.51-1.48,5.26,5.26,0,0,0,1-3.78.27.27,0,0,0-.54.08,4.78,4.78,0,0,1-.87,3.36,4,4,0,0,1-3.1,1.28,3.67,3.67,0,0,1-3-1,5,5,0,0,1-.91-3.57.27.27,0,0,0-.54-.08,5.46,5.46,0,0,0,1,4A4.08,4.08,0,0,0,44,178.36Z"/><polygon class="cls-7" points="45.91 178.13 42.96 197.38 69.77 197.32 67.06 178.08 45.91 178.13"/><path class="cls-8" d="M36,210.63a5.44,5.44,0,1,0,5.44,5.44A5.44,5.44,0,0,0,36,210.63Zm0,8a2.52,2.52,0,1,1,2.54-2.52A2.52,2.52,0,0,1,36,218.6Z"/><path class="cls-9" d="M35.09,210.63a5.44,5.44,0,1,0,5.44,5.44A5.44,5.44,0,0,0,35.09,210.63Zm0,8a2.52,2.52,0,1,1,2.54-2.52A2.52,2.52,0,0,1,35.09,218.6Z"/><path class="cls-8" d="M66.71,210.63a5.44,5.44,0,1,0,5.44,5.44A5.44,5.44,0,0,0,66.71,210.63Zm0,8a2.52,2.52,0,1,1,2.54-2.52A2.52,2.52,0,0,1,66.71,218.6Z"/><path class="cls-9" d="M65.81,210.63a5.44,5.44,0,1,0,5.44,5.44A5.44,5.44,0,0,0,65.81,210.63Zm0,8a2.52,2.52,0,1,1,2.54-2.52A2.52,2.52,0,0,1,65.81,218.6Z"/><path class="cls-10" d="M107.75,149.59H91.41a5,5,0,0,0-4.22,2.35l-9.88,15.86"/><path class="cls-10" d="M33.41,196.94H69.92a4,4,0,0,0,3.91-3.33L77.61,170a4,4,0,0,0-3.91-4.59H29.63A4,4,0,0,0,25.72,170l3.78,23.57A4,4,0,0,0,33.41,196.94Z"/><line class="cls-10" x1="51.66" y1="165.45" x2="51.66" y2="196.94"/><line class="cls-10" x1="75.82" y1="181.2" x2="27.51" y2="181.2"/><line class="cls-10" x1="66.08" y1="165.45" x2="62.96" y2="196.94"/><line class="cls-10" x1="37.96" y1="165.45" x2="40.85" y2="196.94"/><path class="cls-10" d="M73,195.51l5.92,8.8a3.6,3.6,0,0,1-3,5.61H27.51"/><rect class="cls-11" x="150.03" y="199.68" width="50.09" height="13.47"/><rect class="cls-12" x="88.52" y="79.16" width="173.64" height="124.92" rx="9.39" ry="9.39"/><rect class="cls-13" x="93.37" y="83.72" width="163.41" height="108.38" rx="5.77" ry="5.77"/><path class="cls-12" d="M135.82,212h78.5a7.32,7.32,0,0,1,7.32,7.32v1.17a0,0,0,0,1,0,0H128.5a0,0,0,0,1,0,0v-1.17A7.32,7.32,0,0,1,135.82,212Z"/><g class="cls-14"><rect class="cls-15" x="132.39" y="91.2" width="114.34" height="76.85" rx="5.01" ry="5.01"/></g><g class="cls-16"><rect class="cls-17" x="143.26" y="147.35" width="4.98" height="12.5"/><rect class="cls-18" x="154.48" y="136.37" width="4.98" height="23.48"/><rect class="cls-17" x="165.71" y="138.8" width="4.98" height="21.05"/><rect class="cls-18" x="176.93" y="126.91" width="4.98" height="32.94"/><g class="cls-19"><rect class="cls-20" x="154.48" y="136.37" width="2.29" height="23.48"/></g><g class="cls-19"><rect class="cls-20" x="143.26" y="147.35" width="2.29" height="12.5"/></g><g class="cls-21"><rect class="cls-20" x="176.93" y="126.91" width="2.29" height="32.94"/></g><g class="cls-19"><rect class="cls-20" x="165.71" y="138.8" width="2.29" height="21.05"/></g><polygon class="cls-22" points="184.55 163.29 139.97 163.29 139.97 115.83 140.65 115.83 140.65 162.61 184.55 162.61 184.55 163.29"/><polygon class="cls-22" points="144.55 141.49 144.1 140.98 155.76 130.51 166.56 132.86 178.25 119.84 178.76 120.3 166.8 133.61 155.95 131.25 144.55 141.49"/><polygon class="cls-22" points="179.67 122.22 176.38 119.06 180.63 117.92 179.67 122.22"/><rect class="cls-18" x="188.77" y="146.46" width="3.42" height="3.42"/><rect class="cls-17" x="188.77" y="152.45" width="3.42" height="3.42"/><rect class="cls-23" x="193.13" y="153.93" width="10.84" height="1.94"/><rect class="cls-23" x="193.13" y="147.94" width="10.84" height="1.94"/><rect class="cls-18" x="208.88" y="146.46" width="3.42" height="3.42"/><rect class="cls-17" x="208.88" y="152.45" width="3.42" height="3.42"/><rect class="cls-23" x="213.24" y="153.93" width="10.84" height="1.94"/><rect class="cls-23" x="213.24" y="147.94" width="10.84" height="1.94"/><rect class="cls-18" x="226.99" y="146.46" width="3.42" height="3.42"/><rect class="cls-17" x="226.99" y="152.45" width="3.42" height="3.42"/><rect class="cls-23" x="231.36" y="153.93" width="7.13" height="1.94"/><rect class="cls-23" x="231.36" y="147.94" width="7.13" height="1.94"/><rect class="cls-23" x="189.41" y="113.78" width="49.08" height="0.89"/><rect class="cls-23" x="139.97" y="102.83" width="98.52" height="2.04"/><rect class="cls-23" x="189.26" y="116.55" width="49.23" height="0.89"/><rect class="cls-23" x="189.26" y="111" width="49.23" height="0.89"/><rect class="cls-23" x="189.26" y="119.33" width="49.23" height="0.89"/><rect class="cls-23" x="189.26" y="122.11" width="49.23" height="0.89"/><rect class="cls-23" x="189.26" y="124.88" width="49.23" height="0.89"/><rect class="cls-23" x="189.26" y="127.66" width="49.23" height="0.89"/><rect class="cls-23" x="189.26" y="130.43" width="49.23" height="0.89"/><rect class="cls-23" x="189.26" y="133.21" width="49.23" height="0.89"/><rect class="cls-23" x="195.29" y="135.98" width="43.2" height="0.89"/><path class="cls-24" d="M241.72,91.2H137.4a5,5,0,0,0-5,5v4.38H246.73V96.21A5,5,0,0,0,241.72,91.2Z"/><circle class="cls-25" cx="230.58" cy="96.07" r="1.44"/><circle class="cls-25" cx="236.47" cy="96.07" r="1.44"/><circle class="cls-25" cx="242.36" cy="96.07" r="1.44"/></g><rect class="cls-26" x="102.02" y="108.2" width="114.34" height="76.85" rx="5.01" ry="5.01"/><rect class="cls-15" x="104.34" y="105.21" width="114.34" height="76.85" rx="5.01" ry="5.01"/><rect class="cls-17" x="115.21" y="161.35" width="4.98" height="12.5"/><rect class="cls-18" x="126.43" y="150.38" width="4.98" height="23.48"/><rect class="cls-17" x="137.65" y="152.8" width="4.98" height="21.05"/><rect class="cls-18" x="148.88" y="140.92" width="4.98" height="32.94"/><g class="cls-19"><rect class="cls-20" x="126.43" y="150.38" width="2.29" height="23.48"/></g><g class="cls-19"><rect class="cls-20" x="115.21" y="161.35" width="2.29" height="12.5"/></g><g class="cls-21"><rect class="cls-20" x="148.88" y="140.92" width="2.29" height="32.94"/></g><g class="cls-19"><rect class="cls-20" x="137.65" y="152.8" width="2.29" height="21.05"/></g><polygon class="cls-22" points="156.49 177.3 111.92 177.3 111.92 134.07 112.6 134.07 112.6 176.62 156.49 176.62 156.49 177.3"/><polygon class="cls-22" points="116.5 155.5 116.04 154.99 127.7 144.52 138.5 146.87 150.2 133.85 150.71 134.3 138.75 147.62 127.9 145.26 116.5 155.5"/><polygon class="cls-22" points="151.62 136.23 148.32 133.06 152.58 131.93 151.62 136.23"/><rect class="cls-18" x="160.71" y="160.47" width="3.42" height="3.42"/><rect class="cls-17" x="160.71" y="166.46" width="3.42" height="3.42"/><rect class="cls-23" x="165.08" y="167.94" width="10.84" height="1.94"/><rect class="cls-23" x="165.08" y="161.94" width="10.84" height="1.94"/><rect class="cls-18" x="180.83" y="160.47" width="3.42" height="3.42"/><rect class="cls-17" x="180.83" y="166.46" width="3.42" height="3.42"/><rect class="cls-23" x="185.19" y="167.94" width="10.84" height="1.94"/><rect class="cls-23" x="185.19" y="161.94" width="10.84" height="1.94"/><rect class="cls-18" x="198.94" y="160.47" width="3.42" height="3.42"/><rect class="cls-17" x="198.94" y="166.46" width="3.42" height="3.42"/><rect class="cls-23" x="203.3" y="167.94" width="7.13" height="1.94"/><rect class="cls-23" x="203.3" y="161.94" width="7.13" height="1.94"/><rect class="cls-23" x="161.35" y="127.79" width="49.08" height="0.89"/><rect class="cls-23" x="111.92" y="116.83" width="98.52" height="2.04"/><rect class="cls-23" x="161.21" y="130.56" width="49.23" height="0.89"/><rect class="cls-23" x="161.21" y="125.01" width="49.23" height="0.89"/><rect class="cls-23" x="161.21" y="133.34" width="49.23" height="0.89"/><rect class="cls-23" x="161.21" y="136.11" width="49.23" height="0.89"/><rect class="cls-23" x="161.21" y="138.89" width="49.23" height="0.89"/><rect class="cls-23" x="161.21" y="141.66" width="49.23" height="0.89"/><rect class="cls-23" x="161.21" y="144.44" width="49.23" height="0.89"/><rect class="cls-23" x="161.21" y="147.21" width="49.23" height="0.89"/><rect class="cls-23" x="167.23" y="149.99" width="43.2" height="0.89"/><path class="cls-27" d="M213.67,105.21H109.35a5,5,0,0,0-5,5v4.38H218.68v-4.38A5,5,0,0,0,213.67,105.21Z"/><circle class="cls-25" cx="202.53" cy="110.08" r="1.44"/><circle class="cls-25" cx="208.42" cy="110.08" r="1.44"/><circle class="cls-25" cx="214.3" cy="110.08" r="1.44"/><path class="cls-28" d="M252.26,79.25H225.48q.27,13,.44,26a10.34,10.34,0,0,1-.48,3.93h0c-.35,0-.2.09-.32.73v0a8,8,0,0,1-5.25,3.19.52.52,0,0,0,0,.29.66.66,0,0,0-.21.81c.12.29,1.66.68,3.75.46a10,10,0,0,0,2.32-.64,3.63,3.63,0,0,0,.85-.58,3,3,0,0,0,.78-.19l.08.08,2.4-1s-.26-1.51-.47-2.3a1.37,1.37,0,0,0-.16-.37A109.87,109.87,0,0,0,233.91,93c-.44,7.05-3,21.38-3.16,21.87a3.68,3.68,0,0,1-3,2.14c-.57,0-3.36-.11-3.06,1.17.07.31,1.52,1,3.62,1.1a9.94,9.94,0,0,0,2.4-.23,4.44,4.44,0,0,0,1.49-.81l.32.43L235,118s0-.66,0-1.46a3.24,3.24,0,0,0-.54-1.55l0-1.45,1.41-.17s2.83-9.15,4.17-12.26a27.45,27.45,0,0,0,1.52-3.9,28.1,28.1,0,0,0,.58-4.88,43.15,43.15,0,0,1,1.64-8.8,1.3,1.3,0,0,1,.24-.51,1.36,1.36,0,0,1,.93-.32c3.6-.33,5.25.28,7.5-.42,3-.92,3.28-2.27,3.43-2.33A9.34,9.34,0,0,0,252.26,79.25Z"/><g class="cls-29"><path class="cls-30" d="M262.16,139.18V108.13c-4.63,6.06-9.21,11.49-13.84,17.56-2,2.63-9.88,11.34-4.51,14.84,1.37.89,3.76.85,4.95.94,4.28.3,8.53-.88,12.69-2.06Z"/></g><path class="cls-28" d="M262.16,145.86l-2.58.2,0-.15-2,.16-.6-1.71a2.59,2.59,0,0,0-2.53-1.61,1.38,1.38,0,0,0-1.28,1.92l.6,1.69-2.11.16,0,.15-4.35.34c-.69,0-1.7.89-1.48,1.51l0,.09a.9.9,0,0,0,0,.16l3.76,10.61-.1,44.7h4.36L262.16,172Zm-6.78-.33a1.45,1.45,0,0,1-1.42-.9.77.77,0,0,1,.72-1.08,1.45,1.45,0,0,1,1.42.9A.78.78,0,0,1,255.37,145.53Z"/><path class="cls-28" d="M99.43,127.44a21.83,21.83,0,0,0-2.58,4.33,4.31,4.31,0,0,1-2.41,2.17c-1.91.87-4,1.71-5.92,2.48v5.07c4-2.41,7.62-4.65,7.68-4.67,3.06,1.17,5.61-1.37,6.43-3.21.37-.82-.18-1.16-.21-1.55,0-.2.25-1.39.21-1.55-.24-1.07-3.11-.14-2.87-.64a3.65,3.65,0,0,1,1.2-1.79c1.41-1,2.49-2,2.49-2.43C103.44,125,99.77,127.08,99.43,127.44Z"/><rect class="cls-31" x="254.34" y="153.22" width="67.51" height="78.07" rx="6.95" ry="6.95"/><rect class="cls-32" x="260.58" y="161.39" width="57.09" height="16.04" rx="1.77" ry="1.77"/><rect class="cls-32" x="260.58" y="183.11" width="14.68" height="10.18" rx="1.77" ry="1.77"/><rect class="cls-32" x="281.79" y="183.11" width="14.68" height="10.18" rx="1.77" ry="1.77"/><rect class="cls-32" x="303" y="183.11" width="14.68" height="10.18" rx="1.77" ry="1.77"/><rect class="cls-32" x="260.58" y="199.47" width="14.68" height="10.18" rx="1.77" ry="1.77"/><rect class="cls-32" x="281.79" y="199.47" width="14.68" height="10.18" rx="1.77" ry="1.77"/><rect class="cls-32" x="260.58" y="215.84" width="14.68" height="10.18" rx="1.77" ry="1.77"/><rect class="cls-32" x="281.79" y="215.84" width="14.68" height="10.18" rx="1.77" ry="1.77"/><rect class="cls-32" x="303" y="199.47" width="14.68" height="26.54" rx="1.77" ry="1.77"/><g class="cls-33"><path class="cls-34" d="M259.55,162.12a1.77,1.77,0,0,1,1.77-1.77h53.55a1.77,1.77,0,0,1,1.77,1.77v12.49a1.77,1.77,0,0,1-1.77,1.77H261.32"/><rect class="cls-34" x="259.55" y="182.07" width="14.68" height="10.18" rx="1.77" ry="1.77"/><rect class="cls-34" x="280.75" y="182.07" width="14.68" height="10.18" rx="1.77" ry="1.77"/><rect class="cls-34" x="301.96" y="182.07" width="14.68" height="10.18" rx="1.77" ry="1.77"/><rect class="cls-34" x="259.55" y="198.43" width="14.68" height="10.18" rx="1.77" ry="1.77"/><rect class="cls-34" x="280.75" y="198.43" width="14.68" height="10.18" rx="1.77" ry="1.77"/><rect class="cls-34" x="259.55" y="214.8" width="14.68" height="10.18" rx="1.77" ry="1.77"/><rect class="cls-34" x="280.75" y="214.8" width="14.68" height="10.18" rx="1.77" ry="1.77"/></g><rect class="cls-17" x="301.96" y="198.43" width="14.68" height="26.54" rx="1.77" ry="1.77"/><path class="cls-35" d="M303,224.24v-23a1.77,1.77,0,0,1,1.77-1.77h11.13a1.76,1.76,0,0,1,.62.12,1.77,1.77,0,0,0-1.66-1.15H303.73a1.77,1.77,0,0,0-1.77,1.77v23a1.77,1.77,0,0,0,1.15,1.66A1.76,1.76,0,0,1,303,224.24Z"/><path class="cls-36" d="M254.34,171.63l1.81,4.76h7.57s-.53,20.58-.56,24.43,3.17,30.47,3.17,30.47h4.38l-.46-33.55,6.22-17.21s4.67,23,6.61,26.9,12.35,23.86,12.35,23.86h4l-10.32-44.12-4.43-15.33-22.34-10.44-8,.79"/><polygon class="cls-17" points="103.18 188.72 99.66 225.27 134.31 225.27 130.96 188.66 103.18 188.72"/><path class="cls-37" d="M109.23,192.07h0a1.21,1.21,0,0,1,1.3-1.1h0a1.11,1.11,0,1,1,0,2.2h0A1.21,1.21,0,0,1,109.23,192.07Zm1.3-.68a.7.7,0,1,0,0,1.36h0a.7.7,0,1,0,0-1.36Zm-1.09.68h0Z"/><path class="cls-37" d="M122.14,192h0a1,1,0,0,1,.3-.71,1.4,1.4,0,0,1,1-.39h0a1.21,1.21,0,0,1,1.3,1.1,1,1,0,0,1-.39.79,1.42,1.42,0,0,1-.9.31h0A1.21,1.21,0,0,1,122.14,192Zm1.3-.68a1,1,0,0,0-.69.27.58.58,0,0,0-.18.41h0a.8.8,0,0,0,.88.68h0a1,1,0,0,0,.64-.22.61.61,0,0,0,.24-.47.8.8,0,0,0-.88-.68Z"/><path class="cls-37" d="M116.6,200.05H117a7,7,0,0,0,5.38-2.27,8.07,8.07,0,0,0,1.51-5.8.42.42,0,0,0-.83.12,7.34,7.34,0,0,1-1.33,5.15,6.18,6.18,0,0,1-4.76,2,5.63,5.63,0,0,1-4.61-1.61c-1.85-2.06-1.39-5.44-1.39-5.48a.42.42,0,0,0-.83-.12c0,.15-.52,3.8,1.59,6.15A6.26,6.26,0,0,0,116.6,200.05Z"/><path class="cls-9" d="M69.11,106.37c1.34,2.32.18,5.48,1.54,7.79.54.92,1.46,1.65,1.72,2.69A2.35,2.35,0,0,1,69,119.49a2.89,2.89,0,0,0-.52-.26c-.67-.2-1.27.4-1.85.79a2.82,2.82,0,0,1-2.44.43,3.61,3.61,0,0,1-2-2.44c-1-2.91-.28-6.09.61-9,.45-1.46,1.11-3.09,2.54-3.62"/><path class="cls-38" d="M100.26,131c0,.32.51.6.19,1.28-.73,1.51-3,3.61-5.71,2.64-.12,0-15,8.64-16.14,8.64s-9-7.39-11.51-16.53c-.61-2.18-.37-4.75,1.67-5.85a4.83,4.83,0,0,1,2.81,2.5c1.69,3.19,6.75,13.76,7.88,14.16,1.4-.93,8.21-3,13.73-5.3a3.73,3.73,0,0,0,2.14-1.79,17.77,17.77,0,0,1,2.29-3.57c.3-.3,3.56-2.05,3.56-1.48,0,.33-1,1.21-2.21,2a3,3,0,0,0-1.06,1.48c-.21.42,2.34-.35,2.55.53C100.49,129.86,100.25,130.84,100.26,131Z"/><path class="cls-39" d="M68.17,120.93a6.7,6.7,0,0,1,4.44,3.44,13.86,13.86,0,0,1,.61,1.39c.79,2,1.88,3.84,2.67,5.85a11.87,11.87,0,0,1-3.5,1.69,7.46,7.46,0,0,1-3.26.44,1.65,1.65,0,0,1-.55-.12,1.81,1.81,0,0,1-.57-.49q-.51-.58-1-1.19a3.27,3.27,0,0,1-.66-1.14,3.45,3.45,0,0,1,.16-1.77"/><g class="cls-29"><path class="cls-39" d="M70.12,126.43a.68.68,0,0,0-.25-.22.46.46,0,0,0-.53.24,1.22,1.22,0,0,0-.11.62,8.46,8.46,0,0,0,.38,2.41l-.25,4.25h0a7.45,7.45,0,0,0,3-.44c.46-.17,1-.35,1.46-.55C73.34,130.35,71.71,128.33,70.12,126.43Z"/></g><path class="cls-38" d="M63.53,116.7s-.06,2.66.35,2.84a10.43,10.43,0,0,0,1.72.53l0,5.51-7.34-1.11-5.05-2.81s5.25-1.74,5.3-2.26-.29-3.47-.29-3.47"/><path class="cls-38" d="M52.24,196.41v0c-2,9.53-1.05,22.61-1.5,29.78.11,0,2.73.36,2.73.36s6.21-30.23,7.34-36a8.22,8.22,0,0,0,.14-1.12c.27-4.36-3.65-4.58-5.87-1a15.27,15.27,0,0,0-1,1.94c-.12.28-.24.57-.36.88h0a28.22,28.22,0,0,0-1,3l0,.11c-.09.3-.17.61-.24.92v.07C52.38,195.75,52.31,196.08,52.24,196.41Z"/><path class="cls-38" d="M64,162.22c-.07.79-.49,4.54-1,9-.43,3.72-.9,7.91-1.27,11.23-.27,2.49-.47,4.48-.56,5.41a12.11,12.11,0,0,1-.22,1.61v0c-.95,4.35-4,4.6-5.78,3.59a3.67,3.67,0,0,1-.69-.47,2.33,2.33,0,0,1-.78-1.28h0c-.12-.89-.23-2.11-.34-3.56v0s0,0,0,0v0c-.22-2.83-.41-6.46-.58-10-.2-4.35-.33-8.54-.36-10.91,0-.14,0-.26,0-.39,0-7.25,6.63-11.9,10.77-9.65l.15.07.16.09c.47.32.63,1.4.64,2.64C64.13,160.41,64.07,161.4,64,162.22Z"/><path class="cls-38" d="M53.87,189.58l-.51-1.9s0,0,0,0a30.31,30.31,0,0,1-.63,6.63l0,.11c-.07.3-.15.62-.24.92v.07a5.1,5.1,0,0,0-.21,1v0c0,.86,1.83-3,2.25-3.86l.08-.18-.5-2Z"/><path class="cls-38" d="M68.22,198.23v0c-.19,10,2.89,21.7,3.7,28.95.1,0,2.52-.32,2.52-.32s.46-30.56.49-36.6a9.33,9.33,0,0,0-.06-1.15c-.5-4.4-4.06-3.65-5.44.49a17.9,17.9,0,0,0-.58,2.18c-.06.31-.12.63-.18,1h0a32.86,32.86,0,0,0-.36,3.27v.12c0,.33,0,.65-.06,1v.07C68.24,197.54,68.23,197.88,68.22,198.23Z"/><path class="cls-38" d="M70.29,194.16a2.62,2.62,0,0,1-.7-.31,2,2,0,0,1-.92-1.08h0c-.26-.86-.57-2.06-.92-3.47,0,0,0,0,0,0v0c-.67-2.75-1.47-6.32-2.22-9.8-.91-4.28-1.74-8.42-2.17-10.77,0-.13-.4-1.84-.43-2-1.28-7.29,4.4-12,8.53-10.64l.16.06c.83.33,1.06,3.25,1.25,5.23s1.59,22.43,1.94,26.13a14.87,14.87,0,0,1,.07,1.66C74.78,193.7,72.11,194.71,70.29,194.16Z"/><path class="cls-38" d="M68.53,191l-.78-1.76s0,0,0,0a33.94,33.94,0,0,1,.56,6.75v.12c0,.32,0,.65-.06,1v.07a5.88,5.88,0,0,0,0,1v0c.14.86,1.14-3.4,1.37-4.39l0-.2-.78-1.86Z"/><path class="cls-9" d="M55.86,148.22s-5.35,6.79-4.8,13.62c.23,2.84.58,5.35.9,8.2,0,.41.69,6.41.51,6.42,0,0,11,3.41,21.67-1.06,0-.73.85-14.7-4.9-28A92.75,92.75,0,0,1,55.86,148.22Z"/><path class="cls-39" d="M72.61,132.54c0,1.95-1.08,3.13-2.56,4.77a58,58,0,0,0-.81,7.51c-.08,1.5.56,2.44,0,2.57-2.14,1.86-9.84,3.38-13.38.83.37-3.14-1-10-2-13.56-.15-.54-.28-1-.4-1.35-.88-2.67-2.48-11.23-1.3-11.6l1-.3c1.85-.56,4.58-1.51,4.58-1.51s1.6,4.74,5.76,5.31c2.27-.94,2.07-3.81,2-5.13.74.21,1.07.41,3.37,1.09.65.93.09,2.87,1.13,5.77C70.36,127.65,72.66,130.17,72.61,132.54Z"/><path class="cls-38" d="M68.84,105.83s.42,5.15-.46,7.84a6.4,6.4,0,0,1-5.55,3.84c-6.14,0-7.25-8.35-7.21-8.75s9.06-3.91,9.06-3.91Z"/><path class="cls-40" d="M69.48,156.59"/><path class="cls-9" d="M80.54,230.08c-2.19.39-4.52-.22-5.48-.06-.79.13-2.83.65-3.59,0s-.64-3.1.24-3.42a3.21,3.21,0,0,0,.57.14,6,6,0,0,0,2.59-.21,13.79,13.79,0,0,0,3.62,1.37,12.32,12.32,0,0,1,2.41.73C81.71,229,81.77,229.86,80.54,230.08Z"/><path class="cls-9" d="M56.93,231c-2.19-.37-3.58-1.58-4.54-1.75-.79-.14-2.78-.53-3-1.35-.16-.61.45-3.13,1.38-3.14a3.21,3.21,0,0,0,.49.32,6,6,0,0,0,2.51.68,13.78,13.78,0,0,0,2.94,2.51,12.32,12.32,0,0,1,2,1.5C59.38,230.45,58.17,231.25,56.93,231Z"/><path class="cls-38" d="M25,128.87l2-2.39,12.28,11s6-8,7.64-10.47c1.81-2.74,3.45-5.08,6.1-5.54.61.38-.21,10.21-.53,10.45-3.7,2.77-10.91,11.71-13.2,12.17C36.65,144.6,25,128.87,25,128.87Z"/><path class="cls-39" d="M53.94,121s-2.51,0-3.59.92S44.12,131,44.12,131a3.63,3.63,0,0,0,1.35,2.84,7.52,7.52,0,0,0,3.71,1.61s2.59-2.57,4-3.75c.91-.73,1,1.08,1,1.08l4.56-4.45Z"/><path class="cls-9" d="M52.42,121.1l-.4-.23a3.38,3.38,0,0,1-1.65-1.66,5.51,5.51,0,0,1,0-4A16,16,0,0,1,52,113.24a6,6,0,0,0,1-3.36,22.17,22.17,0,0,1,.24-3.54c.43-2,1-3.87,2.52-5.15,2.45-2,7.35-3.26,10-1,.49.42.58.75,1.24.81a4.83,4.83,0,0,1,2.24.65c.88.51,1.94,1.22,1.81,2.37a4.11,4.11,0,0,1-1.67,2.43,2,2,0,0,1-.94.21c-1,0-1.9-.66-2.92-.55a1.94,1.94,0,0,0-1.28.71c-.37.45-.32,1.09-.75,1.51-.69.68-1.76.62-2.57,1.07a.86.86,0,0,0-.35.29.92.92,0,0,0-.09.44l0,1.29c-.4-.18-.45-.75-.78-1a.93.93,0,0,0-1.17.08,2,2,0,0,0-.56,1.12,3.23,3.23,0,0,0,.23,1.54c.27.88,1,1.66,1.62,1.09.44.65,0,1.73-.06,2.46,0,.58,0,1.73.54,2.11s1.29.08,1.32,1A1.74,1.74,0,0,1,60,121.35a6.07,6.07,0,0,1-2.42-.42,3.8,3.8,0,0,0-2.43-.12,7.37,7.37,0,0,1-1.36.61A2.13,2.13,0,0,1,52.42,121.1Z"/><path class="cls-38" d="M30.11,129.26s-2.89-2.31-3.08-2.95-.24-1.31-.48-1.93a3.61,3.61,0,0,0-2-2c-.72-.3-.37-.54-1.14-.39-1.17.23-1.72,1.37-2.19,2.27-2,3.82,3.46,4.54,3.66,4.55.4,0,2.43,2.32,2.43,2.32"/><path class="cls-41" d="M21,127.42l2,1.32a.54.54,0,0,0,.77-.17l4.34-7.27-2.57-1.45-4.66,6.82A.54.54,0,0,0,21,127.42Z"/><path class="cls-42" d="M13.94,112l.68.46,2.75-4-.68-.46a2.3,2.3,0,0,0-3.13.81h0A2.28,2.28,0,0,0,13.94,112Z"/><polygon class="cls-42" points="11.43 116.87 24.08 118.79 26.96 114.58 20.58 103.52 11.43 116.87"/><polygon class="cls-43" points="12.23 117.04 24.08 118.79 25.23 117.11 15.26 112.63 12.23 117.04"/><path class="cls-42" d="M29.28,121.85h0a1.61,1.61,0,0,0,2.19-.57l.51-.75a1.6,1.6,0,0,0-.26-2.24h0a1.61,1.61,0,0,0-2.19.57l-.51.75A1.6,1.6,0,0,0,29.28,121.85Z"/><path class="cls-43" d="M29.53,118.86l-.51.75a1.5,1.5,0,1,0,2.45,1.67l.51-.75.11-.18a1.47,1.47,0,1,1-2.43-1.66Z"/><path class="cls-44" d="M11,117.28h0a.94.94,0,0,0,1.28-.33L21,104.3a.94.94,0,0,0-.15-1.31h0a.94.94,0,0,0-1.28.33L10.86,116A.94.94,0,0,0,11,117.28Z"/><path class="cls-41" d="M21,103.23l-7.23,10.53a.94.94,0,0,1-1.28.33.77.77,0,0,1-.22-.24L10.86,116a.88.88,0,1,0,1.44,1L21,104.3A1,1,0,0,0,21,103.23Z"/><path class="cls-44" d="M25.19,121l.82.56a2.87,2.87,0,0,0,3.9-1l.81-1.19a2.85,2.85,0,0,0-.47-4l-.82-.56a2.87,2.87,0,0,0-3.9,1L24.72,117A2.85,2.85,0,0,0,25.19,121Z"/><path class="cls-41" d="M24.77,116.94l-1.22,1.78A.9.9,0,0,0,23.7,120l3.81,2.6a.91.91,0,0,0,1.24-.32L30,120.48a.91.91,0,0,1-1.24.32l-3.81-2.6A.9.9,0,0,1,24.77,116.94Z"/><path class="cls-38" d="M21.42,125.59a4,4,0,0,1,.7-3,6.49,6.49,0,0,1,.71-.76,1,1,0,0,1,.43-.28,1.35,1.35,0,0,1,.92.21,1.69,1.69,0,0,1,.76.75,1,1,0,0,1-.56,1.21.21.21,0,0,0-.1.1c0,.07,0,.16.07.24a1.71,1.71,0,0,1,.29,1,.58.58,0,0,1-.68.51c-.15,0-.35-.08-.4,0a.26.26,0,0,0,0,.13,1.06,1.06,0,0,1-.23.83.3.3,0,0,1-.18.12.5.5,0,0,1-.19,0,2.65,2.65,0,0,1-.68-.3"/><path class="cls-38" d="M27,126.47a15.27,15.27,0,0,1-.24-1.55,3.53,3.53,0,0,0-1.67-2.9.42.42,0,0,0-.27-.08.3.3,0,0,0-.22.26.8.8,0,0,0,.05.36c.12.37.64,1.06.48,1.43a4.3,4.3,0,0,0-.41,1.8c0,.55.27,1.44.92,1.53"/><line class="cls-45" x1="12.34" y1="97.4" x2="14.89" y2="103.41"/><line class="cls-45" x1="7.03" y1="102.74" x2="12.25" y2="106.65"/><line class="cls-45" x1="3.67" y1="110.01" x2="10.15" y2="110.65"/><path class="cls-38" d="M211.49,46.86s-2.33-1.64-2.41-2.33a16,16,0,0,0-2.23-4A12.51,12.51,0,0,0,203,38.9c-.58-.08-3.93.2-3.51.66s2.58.29,3,.54l.42.25s-.42.56-.25.91-.71.87-.38,1.45-.13.54.16,1.15c.49,1,1.75,1.56,2.08,1.29.25.59,1.21,1.81,2.1,1.72s3.07,2,3.07,2"/><path class="cls-38" d="M247,35.17c.08,1.56,0,4.29.42,4.69s1.89.34,1.89.34-5.17,6.54-5.63,6.18-6.58-5.34-5.2-5.6,2.72-.2,2.68-.91l-.12-2.13"/><path class="cls-17" d="M252.91,70.08s-10.09,1.15-12.41,1.19-2.21-1.16-2.21-1.16a92.36,92.36,0,0,0-1-10.62c-.45-1.91-.65-2.61-1-4.42-.87-4-.83-4.79-1.75-9.76l6-4.84a3.18,3.18,0,0,0,3.15,1.89A4.59,4.59,0,0,0,248.08,40l8.22,5.46.77,13.27-1,10.93"/><path class="cls-38" d="M247.13,33.75a17.4,17.4,0,0,1-.71,2.32A2.63,2.63,0,0,1,243.64,38l-3.09.07a3.53,3.53,0,0,1-2.41-.51,3.6,3.6,0,0,1-.79-2.24q-.27-1.46-.44-2.94a43.39,43.39,0,0,1-.27-5.81,4.21,4.21,0,0,1,.07-.8.57.57,0,0,1,.13-.29.65.65,0,0,1,.37-.14A31.69,31.69,0,0,1,243,25,6.64,6.64,0,0,1,247,26a7.4,7.4,0,0,1,2.09,3.54c.08.21.13.49-.05.62"/><path class="cls-46" d="M224.5,106.06a22,22,0,0,0,.6,2.69c.27.69,2.52.05,2.67-.39a20.62,20.62,0,0,0-.71-3.71"/><path class="cls-47" d="M228.56,108.93c.19.74.44,2.16.44,2.16l-2.25,1-.37-.35a4.17,4.17,0,0,1-1.25,1,9.34,9.34,0,0,1-2.18.6c-2,.21-3.41-.16-3.53-.43-.49-1.14,2.12-1.44,2.64-1.58a3.45,3.45,0,0,0,2.47-2.47c.11-.6,0-.7.3-.68a.79.79,0,0,1,.56.26,1.42,1.42,0,0,0,1.6.37,1.7,1.7,0,0,0,.8-.66A1,1,0,0,1,228.56,108.93Z"/><path class="cls-48" d="M234.45,79.84a38.11,38.11,0,0,1-11.48.27c.5,1.42,1.72,3.25,2.18,5.26,1.53,6.62,2.06,15.52,2.45,21,0,0-.74,1.41-3.09.34C221,98,214.83,80.4,214.89,76.57c.07-4.87,12.23-6,21.13-7.24"/><path class="cls-47" d="M250,70.09c2.8,2-15.52,9.75-15.52,9.75a30.46,30.46,0,0,1-6,.57,4.39,4.39,0,0,1-.45-1.14c-.11-.53-.05-1.09-.14-1.62A3.77,3.77,0,0,0,226,75.19a8.25,8.25,0,0,0-3-1,40.22,40.22,0,0,0-6.8-.12c5.51-4.06,16.78-4.59,22-4.92C239.25,70.83,249.57,69.79,250,70.09Z"/><path class="cls-46" d="M230.31,110.69a22,22,0,0,0,.13,2.76c.14.72,2.47.49,2.69.08a20.62,20.62,0,0,0-.06-3.77"/><path class="cls-47" d="M233.81,114.22c.06.76.06,2.2.06,2.2l-2.38.57-.3-.41a4.17,4.17,0,0,1-1.4.76,9.34,9.34,0,0,1-2.25.22c-2-.13-3.33-.75-3.4-1-.28-1.2,2.34-1.05,2.87-1.1a3.45,3.45,0,0,0,2.86-2c.22-.57.09-.7.41-.62a.79.79,0,0,1,.51.36,1.42,1.42,0,0,0,1.51.64,1.7,1.7,0,0,0,.9-.52A1,1,0,0,1,233.81,114.22Z"/><path class="cls-48" d="M256.08,69.68a113.6,113.6,0,0,1-12.41.4c-1.59,0-13.58,2.25-14.73,4.28-1.89,3.34,1.23,22.88.94,36.87,0,0,1.44,1.2,4,.07.63-6.87,4.69-23.08,1.89-30.65,6.61.88,11.95,1.75,18-.24a4.8,4.8,0,0,0,3.09-3.28A11.49,11.49,0,0,0,256.08,69.68Z"/><path class="cls-17" d="M240.5,40.46l-1.72.1a13.26,13.26,0,0,0-3.56.67c-1.63.61-2.79,2.12-4.12,3.31s-7.92,7.47-9.16,7.7S209.84,45,209.84,45l-2.65,2.65S219,58.59,222.49,58.61c1.71,0,11.12-4.95,14.13-6.87Z"/><path class="cls-49" d="M222.52,56.51c-2.42.14-13.53-8.35-14.82-9.34l-.52.52S219,58.59,222.49,58.61c1.42,0,8.19-3.43,12.16-5.69l1-.59-.62-3.66S225.1,56.37,222.52,56.51Z"/><path class="cls-50" d="M211.21,71.86h27l-4.84-15.78a2.08,2.08,0,0,0-2-1.47H207.74a1.35,1.35,0,0,0-1.29,1.74Z"/><path class="cls-51" d="M210.87,71.86h26.59l-4.84-15.78a2.07,2.07,0,0,0-2-1.47H207a1.35,1.35,0,0,0-1.29,1.74l4.64,15.12A.55.55,0,0,0,210.87,71.86Z"/><g class="cls-16"><path class="cls-52" d="M252.38,48.07a105.56,105.56,0,0,0-2,15.17c-4.72,1.83-6.64,4.56-11.25,6.61,0,0-3.64-.61-4,.77-.22.79,4.27,1.42,4.27,1.42,4.28,0,15.56-3.11,16.32-3.32s3-14.55,3.08-22.33a4.89,4.89,0,0,0-.72-3.17,4.15,4.15,0,0,0-1.39-1A19.41,19.41,0,0,0,248.08,40"/></g><path class="cls-38" d="M239.8,70.79a2.7,2.7,0,0,0-2.25-.71,16.42,16.42,0,0,0-1.8.14c-.27,0-.59.1-.61.4s1.32,0,2,.2a35.75,35.75,0,0,1-4.17.11,1.19,1.19,0,0,0-.48,0,.4.4,0,0,0-.27.37.5.5,0,0,0,.19.32,2.83,2.83,0,0,0,1.44.58,11.06,11.06,0,0,0,6.34-.56"/><path class="cls-17" d="M252.08,48c-.11,6.49-.57,9.47-.45,16-3.26.7-7.77,4.39-12.39,6.44A2.44,2.44,0,0,0,239.4,72c.35.13,15.57-3.58,16.78-4.69s2.53-13.18,2.62-21a4.89,4.89,0,0,0-.72-3.17,4.15,4.15,0,0,0-1.39-1A19.41,19.41,0,0,0,248.08,40"/><path class="cls-53" d="M224.59,63.51c.1,1.38-1.54,2.51-3.65,2.51s-3.91-1.12-4-2.51S218.47,61,220.59,61,224.49,62.13,224.59,63.51Z"/><path class="cls-50" d="M223.19,63.51c.06.77-1,1.39-2.32,1.39s-2.48-.62-2.54-1.39,1-1.39,2.32-1.39S223.13,62.74,223.19,63.51Z"/><path class="cls-54" d="M242.37,29.6c-.05-.24-.59-.29-1.13-.22a8.64,8.64,0,0,0-2.28.48c-.3.23-.28.4-.44.42s-.17-.15-.51-.3a4.57,4.57,0,0,0-1.72,0c-.54.07-1.06.19-1,.44a1.39,1.39,0,0,0,.22.75c.11.07.11.06.54,1a1,1,0,0,0,1.3.71c.89-.19.95-1.21,1-1.63s.13-.49.27-.5.23,0,.4.42.3,1.3,1.21,1.35c1.2.07,1.71-.34,1.88-1.11.22-1,.17-1,.26-1.14a5.73,5.73,0,0,1,.89.08l0-.31A6.71,6.71,0,0,1,242.37,29.6ZM238,31.69a1,1,0,0,1-.88,1.09c-.55.07-.8-.22-1.1-.92a1.81,1.81,0,0,1-.18-1.27c.09-.17.39-.16,1.07-.21s.91-.06,1,.24A3.71,3.71,0,0,1,238,31.69Zm3.9-.57c-.11.75-.39,1.12-1.14,1.21-1.06.13-1.27-.29-1.43-.8a3.72,3.72,0,0,1-.2-1c0-.32.26-.36.93-.49s1.57-.28,1.7-.14A1.81,1.81,0,0,1,241.93,31.12Z"/><path class="cls-54" d="M249.59,27.94a11.7,11.7,0,0,0-.3-1.6,5.11,5.11,0,0,0-2.49-3.27,8,8,0,0,0-5.64-.56c-1,.29-1.42.83-1.95.82a5.87,5.87,0,0,1-1.44-.48c-4-1.45-3.36,2.5-2.93,3.59.19.48,1.11.83,1.23,1a12.19,12.19,0,0,1,.19,1.61.85.85,0,0,0,.5.59s0-1.27,0-1.44a1.6,1.6,0,0,1,.6-1.19,3.7,3.7,0,0,1,1.45-.41,11,11,0,0,1,3,.49c.75.65.95,2.12,1.16,3,.1.41.2.68.37.67.13-1.19.54-1.23,1.25-.82a2.08,2.08,0,0,1,.61,1.62,1.71,1.71,0,0,1-1.2,1.76c-.29.06.57,1.69,1,2.1a2.16,2.16,0,0,0,.42.37,1.92,1.92,0,0,0,.49.18l.58.16a1.5,1.5,0,0,0,.79.07c.43-.12.65-.57.84-1,.32-.65.68-1.29.94-2A11.7,11.7,0,0,0,249.59,27.94Z"/><g class="cls-55"><path class="cls-56" d="M322.33,87.77h-51.1l6.12-4.53V61.14a3.34,3.34,0,0,1,3.34-3.34h41.64a3.34,3.34,0,0,1,3.34,3.34V84.43A3.34,3.34,0,0,1,322.33,87.77Z"/><rect class="cls-57" x="297.88" y="62.11" width="23.35" height="2.23"/><rect class="cls-57" x="297.88" y="65.45" width="23.35" height="2.23"/><rect class="cls-57" x="297.88" y="68.79" width="23.35" height="2.23"/><rect class="cls-57" x="297.88" y="72.04" width="23.35" height="2.23"/><rect class="cls-57" x="297.88" y="75.93" width="16.29" height="2.23"/><rect class="cls-58" x="281.38" y="62.11" width="14.67" height="17.15" rx="3.39" ry="3.39"/><rect class="cls-57" x="281.38" y="81.4" width="14.67" height="1.84"/><path class="cls-15" d="M290.16,73.24h-5.32a.66.66,0,0,1-.64-.49l-1-3.78a.66.66,0,0,1,.64-.84h7.37a.66.66,0,0,1,.64.84l-1,3.78A.66.66,0,0,1,290.16,73.24Z"/><path class="cls-15" d="M291.1,74.09h-6.41a.13.13,0,1,1,0-.26H291L293.23,66a.13.13,0,0,1,.13-.1h1.39a.13.13,0,1,1,0,.26h-1.3L291.22,74A.13.13,0,0,1,291.1,74.09Z"/><circle class="cls-15" cx="284.89" cy="75.14" r="0.78"/><circle class="cls-15" cx="290.53" cy="75.14" r="0.78"/></g><path class="cls-59" d="M132.51,56.9h65.1l-7.8-5.77V15.52a4.25,4.25,0,0,0-4.25-4.25H132.51a4.25,4.25,0,0,0-4.25,4.25V52.65A4.25,4.25,0,0,0,132.51,56.9Z"/><g class="cls-33"><rect class="cls-15" x="133.91" y="17.87" width="29.75" height="2.85" transform="translate(297.58 38.58) rotate(180)"/><rect class="cls-15" x="133.91" y="22.12" width="29.75" height="2.85" transform="translate(297.58 47.09) rotate(180)"/><rect class="cls-15" x="133.91" y="26.37" width="29.75" height="2.85" transform="translate(297.58 55.59) rotate(180)"/><rect class="cls-15" x="133.91" y="30.52" width="29.75" height="2.85" transform="translate(297.58 63.88) rotate(180)"/><rect class="cls-15" x="133.91" y="34.66" width="29.75" height="2.85" transform="translate(297.58 72.17) rotate(180)"/><rect class="cls-15" x="133.91" y="42.19" width="29.75" height="2.85" transform="translate(297.58 87.23) rotate(180)"/><rect class="cls-15" x="133.91" y="46.68" width="50.78" height="2.85" transform="translate(318.6 96.2) rotate(180)"/></g><rect class="cls-60" x="166" y="17.87" width="18.69" height="21.85" rx="4.31" ry="4.31" transform="translate(350.69 57.59) rotate(180)"/><rect class="cls-57" x="166" y="42.44" width="18.69" height="2.35" transform="translate(350.69 87.23) rotate(180)"/><path class="cls-15" d="M173.5,32h6.78a.85.85,0,0,0,.82-.62l1.3-4.82a.85.85,0,0,0-.82-1.07H172.2a.85.85,0,0,0-.82,1.07l1.3,4.82A.85.85,0,0,0,173.5,32Z"/><path class="cls-15" d="M172.31,33.13h8.17a.17.17,0,1,0,0-.34h-8l-2.84-9.91a.17.17,0,0,0-.16-.12h-1.78a.17.17,0,0,0,0,.34h1.65L172.15,33A.17.17,0,0,0,172.31,33.13Z"/><circle class="cls-15" cx="180.21" cy="34.46" r="0.99"/><circle class="cls-15" cx="173.03" cy="34.46" r="0.99"/><ellipse class="cls-6" cx="283.08" cy="241.37" rx="28.69" ry="3.02"/><path class="cls-61" d="M267.69,237.08a7.21,7.21,0,0,1-3,2.27c-1.6.71-5,1-3.1,1.68a11.29,11.29,0,0,0,5.19.07,22.37,22.37,0,0,1,3.5-.21c1.73,0,1.74-.12,1.51-2.07C271.46,236.13,268.46,235.56,267.69,237.08Z"/><path class="cls-61" d="M299,236.11c-.1.54.67,2.18-.7,3.39s-4.5,2.47-2.43,2.52a12,12,0,0,0,5.11-1c1.05-.52.21-1.34,1.52-1.75,1.72-.54,1.36-1.81.47-2.59C301.83,234.14,299.32,234.35,299,236.11Z"/><path class="cls-9" d="M292.42,181.5s4.12-12.11-7.57-22.09c0,0-6.26,2.49-11.28,2.79a27.86,27.86,0,0,1-6-.13s-.33,10.76-.35,16.56Z"/><path class="cls-9" d="M266.32,201.61c-.23-5.42,5.65-4.71,7.81-.66,4.48,8.37-1.65,27.63-2.46,36.76a4.65,4.65,0,0,1-3.1.19,2.17,2.17,0,0,1-.9-1C267.8,225.72,266.56,207.41,266.32,201.61Z"/><path class="cls-9" d="M273.93,202.43c-.68,2.21-8.17,4.54-7.56-3.51.27-3.57,1-23.28,1.13-25.18s.46-4.68,1.37-5c4.59-1.73,12.72,4.27,11.51,11.41C279.57,184.89,275.33,197.85,273.93,202.43Z"/><path class="cls-9" d="M285.73,205.51c-1.81-5.11,4.08-6,7.41-2.86,7.82,7.37,8.12,24.74,10,33.7a6.84,6.84,0,0,1-3.42,1,1.22,1.22,0,0,1-.93-.48C295.65,226.11,287.66,211,285.73,205.51Z"/><path class="cls-9" d="M293.46,203.84c.2,2.3-6,7.06-8.5-.63-1.09-3.41-5.76-23.56-6.35-25.37s-.42-5.56.3-6.22c3.61-3.33,11.75-.4,13.3,6.67C293.26,183,293,199.07,293.46,203.84Z"/><path class="cls-62" d="M261.28,115.62c.21-.22.43-.45.62-.69,1.48-1.89,1.7-3.57,3.07-5.77a17.07,17.07,0,0,1,1-1.91,8,8,0,0,1,2.23-1.83c.64-.34.09,1.08.09,1.08s.54-.79,1.07-.73c.2,0,.24,1.23.24,1.43a10.11,10.11,0,0,1-1.12,4.78,2.47,2.47,0,0,0-.38,1.09,2.43,2.43,0,0,0,1.29-.64,1.56,1.56,0,0,1,1.35-.39,3.59,3.59,0,0,1-.26.56,5.92,5.92,0,0,1-2.37,2.8c-.67.32-1.45.38-2.11.72-1.18.63-1.76,2.09-3,2.68"/><rect class="cls-63" x="265.81" y="106.25" width="5.12" height="9.42" rx="0.65" ry="0.65" transform="translate(63.6 -94.97) rotate(22.7)"/><rect class="cls-64" x="266.35" y="106.8" width="4.29" height="8.41" transform="translate(63.63 -95.01) rotate(22.7)"/><path class="cls-65" d="M272.1,123.28a28,28,0,0,0-5.72,1c-4.07,1.22-5.47,3.11-6.88,3.89,2.73-3.47,5.78-10.83,5.78-10.83s-3.67-3-4.09-2.3-15.83,18.75-15.35,21.67c.2,1.2,2,2.39,3.56,2.34,4.37-.15,9.44-1.74,14.76-3.48,2.34-.77,3.06.88,3.06.88"/><path class="cls-66" d="M259.5,128.13S257.56,132,257,132.3s1.41-.81,2.51-1.94a23.13,23.13,0,0,0,2.59-4.09A22.57,22.57,0,0,0,259.5,128.13Z"/><path class="cls-62" d="M265.59,109.18a.88.88,0,0,1,.27.62,4.84,4.84,0,0,1-.07,2.59,3.73,3.73,0,0,1-1,1.33,8.2,8.2,0,0,1-1.59,1.09"/><path class="cls-67" d="M272.19,102.67c-1,.3-1.57,1.63-1.92,2.54a14.15,14.15,0,0,0-.77,3.42,4.69,4.69,0,0,0,.17,2.41,5.06,5.06,0,0,0,.67,1,2.2,2.2,0,0,0,.48.51.75.75,0,0,0,.67.11c.32-.12.45-.5.54-.83a21.93,21.93,0,0,1,2.46-6.23"/><path class="cls-62" d="M271,109.51c0-.69-.74-1.14-1.37-.42a4.4,4.4,0,0,0-.69,2.54c0,1,.73,1.19,1.36,1.32"/><path class="cls-65" d="M264.17,126.83c1.27-1.46,5.3-3.86,10.69-3.69,3.71.12,13.83.73,15,3.21.58,1.27,1.2,14.27.35,18.76-.64,3.37-2.26,11.72-2.26,13.74s1.08,2.88.58,3.47c-1.13,1.31-8.87,1.86-12.5,1.86-3.23,0-8.74-.86-9-1.9-.41-1.54.63-1.48.77-3.09s.55-12.08,0-13.79c-1.07-3.09-1.59-8.13-2.44-10.42C264.61,133.25,262.9,128.29,264.17,126.83Z"/><path class="cls-66" d="M287.33,137.35c.39.8,3,5,3,5l.11.5a21,21,0,0,1-.27,2.25c-.64,3.37-2.26,11.72-2.26,13.74s1,2.84.58,3.47c-.89,1.21-15.48,3.93-14.77.55.06-.31,12.25-9.6,12.31-9.91.56-2.67,1.05-4.59,1.3-6.53C287.92,141.74,286.95,136.55,287.33,137.35Z"/><path class="cls-68" d="M271.93,118.49a39.84,39.84,0,0,1-.2,4.4,6.68,6.68,0,0,1-1,.57s.6,3.68,1.52,3.4,7-3.35,7-3.35-.86-.35-.86-.69.82-7,.82-7"/><path class="cls-68" d="M276.15,103.13c-.89.24-3.22-.24-3.87.73a22,22,0,0,0-1.45,3.95c-.48,1.28-.79,2.66-1.14,4-.46,1.72-1.21,4.88.48,6.32a2.25,2.25,0,0,0,1.3.66l2.39.45a8,8,0,0,0,3.84.08c1.64-.53,2.54-2.79,3-4.32l2.42-8.78Z"/><path class="cls-69" d="M271.78,128.51s-.36,16.51-1,26.55l2.43,3.35,1.67-4.19a127.67,127.67,0,0,0-1.58-25.59Z"/><path class="cls-69" d="M271.22,127.06l.06.23a4.61,4.61,0,0,0,.5,1.22h0l1.49.11s1-.53,1.15-1.1-1.66-1.5-1.66-1.5l-.22.09a3.23,3.23,0,0,0-1.3.93Z"/><path class="cls-15" d="M278.48,121.79a6.23,6.23,0,0,1,1.7,1.72c-.77,1.75-2.5,4.86-4.4,6.28a8.61,8.61,0,0,0-3-3.78S277.95,125.1,278.48,121.79Z"/><path class="cls-15" d="M272.75,126a6.4,6.4,0,0,0-3,2.82,14.17,14.17,0,0,1,.4-5.23s1.22-1.56,1.64-1.59A8.19,8.19,0,0,0,272.75,126Z"/><path class="cls-62" d="M273,162.87a5.49,5.49,0,0,0-3.57,2,.38.38,0,0,0-.16.31c0,.15.2.21.34.24.86.14,1-.41,1.8-.74L273,164"/><path class="cls-70" d="M266.72,149.43l6.54,21a.75.75,0,0,1-.69,1.05l-13.64,1.2a1.26,1.26,0,0,1-1.14-.88l-7-20.63c-.18-.56.64-1.37,1.18-1.37l13.64-1.2A1.26,1.26,0,0,1,266.72,149.43Z"/><path class="cls-71" d="M266.27,150l6.45,20.63a.75.75,0,0,1-.69,1.05l-13.64,1.2a1.26,1.26,0,0,1-1.14-.88l-6.45-20.63a.75.75,0,0,1,.69-1.05l13.64-1.2A1.26,1.26,0,0,1,266.27,150Z"/><polygon class="cls-15" points="255.38 149.3 255.86 151.11 262.24 150.55 261.72 148.75 255.38 149.3"/><path class="cls-15" d="M256.59,147.62l.64,2,3-.28-.64-2a2.07,2.07,0,0,0-2-1.46A1.25,1.25,0,0,0,256.59,147.62Zm.67,0a.7.7,0,0,1,.57-1,1.16,1.16,0,0,1,1.13.82.7.7,0,0,1-.57,1A1.16,1.16,0,0,1,257.26,147.58Z"/><path class="cls-68" d="M278.18,161.41c-1.43.3-5.24,1.44-5.65,1.63a16.77,16.77,0,0,0-2.43,1.8c-1.44,1.44-.7,2.11-1.27,4.06a1.12,1.12,0,0,0,0,.31c0,.2.27.38.55.19.15.25.59.1.81-.18,0,.19.27.32.71.08.24-.13.19-.12.74-.61a5.77,5.77,0,0,1,1.55-.94,11.3,11.3,0,0,0,1.51-.69c.58-.38,1.61-.47,2.12-2.13a1.64,1.64,0,0,1,.8-.79l2.33-1.46"/><path class="cls-65" d="M287,134.57c.61,2.16,3.13,17.16,3.13,17.16L275.89,162l1.18,3.11s17-5.71,18.35-9.62S296.7,134,292,127.78a10.79,10.79,0,0,0-4.52-3"/><path class="cls-62" d="M272.39,166.81l-.36.33a4.92,4.92,0,0,0-.74.72c-.24.29-.48.59-.68.8a3.05,3.05,0,0,1-.36.33,6.89,6.89,0,0,1,.87-1.28A3.31,3.31,0,0,1,272,167Z"/><path class="cls-62" d="M271.61,165.86a2.1,2.1,0,0,0-.4.45c-.11.14-.23.32-.35.5l-.19.29a1.57,1.57,0,0,0-.16.3,7.37,7.37,0,0,1-1,1.67s.08-.23.23-.57.36-.77.56-1.2a4.45,4.45,0,0,1,.82-1.09A2,2,0,0,1,271.61,165.86Z"/><path class="cls-62" d="M270.71,165.1a5.16,5.16,0,0,1-.34.48c-.1.14-.25.3-.36.47s-.18.41-.27.61c-.18.43-.34.87-.46,1.2s-.21.55-.21.55a3.44,3.44,0,0,1,.06-.59,5.08,5.08,0,0,1,.4-1.25,3.57,3.57,0,0,1,.35-.62,4.69,4.69,0,0,1,.43-.44A5.1,5.1,0,0,0,270.71,165.1Z"/><path class="cls-69" d="M281.57,113.45c-.56-.33-1-.67-1.35-.14-.19.28-.31.67-.64.77a.66.66,0,0,1-.75-.53,1.91,1.91,0,0,1,.12-1l.67-2.16a3.25,3.25,0,0,0,.16-2.16,2.37,2.37,0,0,0-.68-.87,7.23,7.23,0,0,0-3.32-1.42,35.37,35.37,0,0,1-3.57-.73,3.86,3.86,0,0,1-1.36-.68,2.93,2.93,0,0,1-1-2.2,4.54,4.54,0,0,1,.7-2.34,3.91,3.91,0,0,0,.36.81,3,3,0,0,1,.65-1c.35,1.93,8.49,1.29,10.4,2.14,1.32.59,2.41,1,2.37,3.12a.78.78,0,0,0,.26.34,6,6,0,0,1,1.82,4.32c.18,2.37-1.2,4.94-2.56,6.9a4.42,4.42,0,0,1-1,1.2,2.67,2.67,0,0,1-1.89.43c-.59-.11-1.75-.06-1.76-.66,0-.43.91-1.19,1.16-1.54"/><path class="cls-68" d="M279.44,115.69a.75.75,0,0,0,1.12.85,2.58,2.58,0,0,0,1.63-2c.19-1-.36-2.05-1.3-1.79a1.39,1.39,0,0,0-.89,1.35"/><path class="cls-62" d="M271.93,118.85l2.61.48a3.64,3.64,0,0,1-2.65,1"/><g class="cls-72"><polyline class="cls-73" points="66.75 74.05 70.25 75.81 68.5 71.51"/><ellipse class="cls-73" cx="63.29" cy="68.55" rx="7.4" ry="6.98"/><path class="cls-74" d="M61.48,66.26v5a.52.52,0,0,0,.78.45l4.32-2.5a.52.52,0,0,0,0-.91l-4.32-2.5A.52.52,0,0,0,61.48,66.26Z"/></g><g class="cls-72"><polyline class="cls-73" points="308.95 127.15 305.45 128.91 307.2 124.61"/><ellipse class="cls-73" cx="312.41" cy="121.65" rx="7.4" ry="6.98"/><path class="cls-74" d="M311.09,125c1.61,0,3.25,0,4.73-.05.47,0,.88-.73.31-1a1,1,0,0,0,.59-.48.47.47,0,0,0-.29-.63c.56.13.78-.71.34-1a1.23,1.23,0,0,0,.47-.71.7.7,0,0,0-.34-.74,1.29,1.29,0,0,0-.58-.09h-2a4.16,4.16,0,0,0-.3-2.94c-.16-.26-.59-.58-.93-.37s-.23.66-.22,1A3.31,3.31,0,0,1,311,121S311.11,123.66,311.09,125Z"/><rect class="cls-74" x="308.07" y="121.04" width="2.44" height="3.96"/></g><g class="cls-72"><polyline class="cls-73" points="196.95 66.54 199.5 63.78 196 64.47"/><ellipse class="cls-73" cx="192.85" cy="67.18" rx="5.37" ry="5.06"/><path class="cls-74" d="M191.82,69.61c1.06,0,2.13,0,3.1,0,.31,0,.57-.53.2-.69a.7.7,0,0,0,.39-.35.35.35,0,0,0-.19-.46c.37.09.51-.51.23-.71a.9.9,0,0,0,.31-.52.53.53,0,0,0-.22-.54.77.77,0,0,0-.38-.07h-1.32a3.31,3.31,0,0,0-.19-2.13c-.11-.19-.39-.42-.61-.27s-.15.48-.14.69a2.45,2.45,0,0,1-1.2,2.21S191.84,68.64,191.82,69.61Z"/><rect class="cls-74" x="189.84" y="66.73" width="1.6" height="2.87"/></g><g class="cls-72"><path class="cls-73" d="M221.94,29.52a7.9,7.9,0,1,0-1.8,1.66l3.07,1.63Z"/><path class="cls-15" d="M212.41,22.42a1.93,1.93,0,0,1,2.73,0l.49.5.51-.5a1.93,1.93,0,1,1,2.71,2.76L217,27.06h0a1.93,1.93,0,0,1-2.73,0l-1.85-1.89A1.93,1.93,0,0,1,212.41,22.42Z"/></g></g></g></g></svg>