<svg xmlns="http://www.w3.org/2000/svg" viewBox="0 0 399.79 331.13"><defs><style>.cls-1,.cls-2{fill:none;}.cls-1,.cls-10,.cls-11,.cls-2,.cls-4,.cls-5,.cls-6,.cls-7,.cls-9{stroke:#e6e6e6;}.cls-1,.cls-5{stroke-linecap:round;stroke-linejoin:round;}.cls-10,.cls-11,.cls-2,.cls-4,.cls-6,.cls-7,.cls-9{stroke-miterlimit:10;}.cls-10,.cls-11,.cls-3,.cls-4,.cls-6,.cls-7,.cls-9{fill:#e6e6e6;}.cls-4{font-size:7.14px;}.cls-10,.cls-11,.cls-4,.cls-6,.cls-7,.cls-9{font-family:ArialNarrow, Arial;}.cls-5{fill:#fafbfc;}.cls-6{font-size:7.83px;}.cls-7{font-size:7.05px;}.cls-8{opacity:0.11;}.cls-9{font-size:8.82px;}.cls-10{font-size:9.68px;}.cls-11{font-size:8.72px;}</style></defs><title>Fichier 8life</title><g id="Calque_2" data-name="Calque 2"><g id="Calque_1-2" data-name="Calque 1"><line class="cls-1" x1="279.31" y1="51.11" x2="290.24" y2="51.11"/><line class="cls-1" x1="279.31" y1="61.98" x2="290.24" y2="61.98"/><line class="cls-1" x1="279.31" y1="58.36" x2="290.24" y2="58.36"/><line class="cls-1" x1="279.31" y1="54.73" x2="286.74" y2="54.73"/><line class="cls-1" x1="308.36" y1="45.89" x2="303.66" y2="45.89"/><path class="cls-2" d="M231.95,283.21a6.23,6.23,0,1,0-2.48,2.25,3.11,3.11,0,0,0,4.11-.25l.17-.19Z"/><path class="cls-2" d="M219.28,277.73a6.21,6.21,0,0,0-5.26,9.53l-1.8,1.8.17.19a3.11,3.11,0,0,0,4.11.25,6.21,6.21,0,1,0,2.78-11.77Z"/><circle class="cls-3" cx="216.52" cy="284.19" r="0.72"/><circle class="cls-3" cx="219.28" cy="284.19" r="0.72"/><circle class="cls-3" cx="222.04" cy="284.19" r="0.72"/><circle class="cls-3" cx="224.32" cy="279.9" r="0.57"/><circle class="cls-3" cx="226.5" cy="279.9" r="0.57"/><circle class="cls-3" cx="228.69" cy="279.9" r="0.57"/><path class="cls-2" d="M268.26,267.95l1.08,0-.08-1.92L268,266a6.45,6.45,0,0,0-.38-1l1-.61-1-1.66-1.13.66a6.46,6.46,0,0,0-.77-.73l.66-1.08-1.63-1-.7,1.14a6.52,6.52,0,0,0-.85-.26V260.3h-1.92v1a5.9,5.9,0,0,0-.84.12l-.43-.94-1.74.81.38.81a6.42,6.42,0,0,0-1,.72l-.71-.54-1.16,1.53.61.46a6.58,6.58,0,0,0-.58,1.17l-.78-.13-.31,1.9.69.11c0,.12,0,.23,0,.35a6.35,6.35,0,0,0,.08,1l-.71.24.62,1.82.66-.23a6.25,6.25,0,0,0,.7,1.12l-.54.57,1.4,1.32.53-.56a6.32,6.32,0,0,0,1.12.63l-.23.84,1.85.51.24-.87a6.46,6.46,0,0,0,.67,0l.32,0,.11.73,1.9-.29-.13-.82a6.25,6.25,0,0,0,1.16-.56l.49.66,1.54-1.15-.56-.76a6.54,6.54,0,0,0,.71-1l.85.4.83-1.73-1-.46A6.37,6.37,0,0,0,268.26,267.95Zm-6.19.79a1.12,1.12,0,1,1,1.12-1.12A1.12,1.12,0,0,1,262.07,268.74Z"/><circle class="cls-1" cx="250.11" cy="268.07" r="0.92"/><circle class="cls-1" cx="274.33" cy="286.6" r="0.92"/><line class="cls-1" x1="243.18" y1="259.42" x2="253.74" y2="259.42"/><line class="cls-1" x1="246.81" y1="256.18" x2="253.32" y2="256.18"/><line class="cls-1" x1="173.17" y1="280.29" x2="164.72" y2="280.29"/><path class="cls-1" d="M183.54,280.77v3.67a3.14,3.14,0,0,0,3.14,3.14h6.09L197.5,291l-.24-3.44a3.15,3.15,0,0,0,3.15-3.14v-3.67a3.15,3.15,0,0,0-3.15-3.14H186.68A3.14,3.14,0,0,0,183.54,280.77Z"/><line class="cls-1" x1="197.5" y1="284.69" x2="191.47" y2="284.69"/><line class="cls-1" x1="197.5" y1="282.52" x2="193.26" y2="282.52"/><line class="cls-1" x1="189.89" y1="282.52" x2="187.2" y2="282.52"/><path class="cls-1" d="M189.06,285.33v4.34a3.71,3.71,0,0,1-3.71,3.71h-7.19l-5.58,4.07.29-4.07a3.71,3.71,0,0,1-3.72-3.71v-4.34a3.71,3.71,0,0,1,3.72-3.71h12.48A3.71,3.71,0,0,1,189.06,285.33Z"/><line class="cls-1" x1="175.07" y1="284.82" x2="185.05" y2="284.82"/><line class="cls-1" x1="172.57" y1="289.96" x2="179.69" y2="289.96"/><line class="cls-1" x1="172.57" y1="287.39" x2="177.58" y2="287.39"/><line class="cls-1" x1="181.55" y1="287.39" x2="184.73" y2="287.39"/><line class="cls-1" x1="274.9" y1="87.81" x2="289.65" y2="87.81"/><circle class="cls-1" cx="259.35" cy="50.58" r="1.5"/><path class="cls-2" d="M278.61,237.11a6,6,0,1,1-12.05,0c0-3.33,2.7-8.67,6-8.67S278.61,233.79,278.61,237.11Z"/><path class="cls-2" d="M275.9,228.17l.65-3.12a.81.81,0,0,0-1-1l-2.11.68a2.77,2.77,0,0,1-1.68,0l-2.17-.69a.81.81,0,0,0-1,1l.65,3.12"/><path class="cls-2" d="M275.56,230.24h-5.94a1,1,0,0,1-1-1h0a1,1,0,0,1,1-1h5.94a1,1,0,0,1,1,1h0A1,1,0,0,1,275.56,230.24Z"/><text class="cls-4" transform="translate(270.82 239.13)">$</text><rect class="cls-2" x="320.87" y="210.75" width="20.54" height="16.97" rx="3.88" ry="3.88"/><line class="cls-2" x1="320.87" y1="223.22" x2="341.42" y2="223.22"/><circle class="cls-3" cx="308.3" cy="225.53" r="0.81"/><rect class="cls-2" x="305.84" y="227.68" width="4.92" height="2.68"/><rect class="cls-2" x="335.37" y="212.83" width="11.05" height="2.2" rx="0.83" ry="0.83"/><path class="cls-2" d="M334.86,119.15a1.32,1.32,0,0,1-.93-.39l-4.21-4.21a1.32,1.32,0,0,1,1.87-1.87l3.15,3.15,4.87-6.29a1.32,1.32,0,1,1,2.09,1.62l-5.78,7.48a1.32,1.32,0,0,1-1,.51Z"/><rect class="cls-1" x="298.25" y="164.46" width="2.76" height="7.93"/><rect class="cls-1" x="303.63" y="162.31" width="2.76" height="10.07"/><rect class="cls-1" x="309.01" y="160.02" width="2.76" height="12.36"/><rect class="cls-1" x="314.4" y="156.53" width="2.76" height="15.85"/><path class="cls-1" d="M317,148.76c-4.45,5.29-8.67,10-18.77,10"/><polyline class="cls-1" points="313.79 148.76 317.02 148.76 317.02 151.98"/><path class="cls-1" d="M315.94,113.37a4.66,4.66,0,0,0-4.66,4.66c0,2.8,4.66,9.37,4.66,9.37s4.66-6.64,4.66-9.37A4.66,4.66,0,0,0,315.94,113.37Zm0,5.88a1.75,1.75,0,1,1,1.75-1.75A1.75,1.75,0,0,1,315.94,119.25Z"/><path class="cls-1" d="M288.49,252.48a4.66,4.66,0,0,0-4.66,4.66c0,2.8,4.66,9.37,4.66,9.37s4.66-6.64,4.66-9.37A4.66,4.66,0,0,0,288.49,252.48Zm0,5.88a1.75,1.75,0,1,1,1.75-1.75A1.75,1.75,0,0,1,288.49,258.36Z"/><path class="cls-1" d="M342.09,141v3.78a3.23,3.23,0,0,0,3.23,3.23h6.26l4.86,3.54-.25-3.54a3.23,3.23,0,0,0,3.24-3.23V141a3.23,3.23,0,0,0-3.24-3.23H345.32A3.23,3.23,0,0,0,342.09,141Z"/><line class="cls-1" x1="356.45" y1="145.06" x2="350.25" y2="145.06"/><line class="cls-1" x1="356.45" y1="142.82" x2="352.09" y2="142.82"/><line class="cls-1" x1="348.62" y1="142.82" x2="345.86" y2="142.82"/><path class="cls-1" d="M347.77,145.71v4.46a3.82,3.82,0,0,1-3.82,3.82h-7.39l-5.74,4.18.3-4.18a3.82,3.82,0,0,1-3.82-3.82v-4.46a3.82,3.82,0,0,1,3.82-3.82h12.84A3.82,3.82,0,0,1,347.77,145.71Z"/><line class="cls-1" x1="333.39" y1="145.19" x2="343.64" y2="145.19"/><line class="cls-1" x1="330.81" y1="150.47" x2="338.13" y2="150.47"/><line class="cls-1" x1="330.81" y1="147.83" x2="335.96" y2="147.83"/><line class="cls-1" x1="340.05" y1="147.83" x2="343.32" y2="147.83"/><path class="cls-1" d="M46.42,119.6V122a2.09,2.09,0,0,0,2.09,2.09h4l3.14,2.29-.16-2.29A2.09,2.09,0,0,0,57.62,122V119.6a2.09,2.09,0,0,0-2.09-2.09h-7A2.09,2.09,0,0,0,46.42,119.6Z"/><line class="cls-1" x1="55.69" y1="122.2" x2="51.69" y2="122.2"/><line class="cls-1" x1="55.69" y1="120.76" x2="52.88" y2="120.76"/><line class="cls-1" x1="50.64" y1="120.76" x2="48.85" y2="120.76"/><path class="cls-1" d="M50.09,122.63v2.88A2.47,2.47,0,0,1,47.62,128H42.84l-3.71,2.7.19-2.7a2.47,2.47,0,0,1-2.47-2.47v-2.88a2.47,2.47,0,0,1,2.47-2.47h8.29A2.47,2.47,0,0,1,50.09,122.63Z"/><line class="cls-1" x1="40.8" y1="122.29" x2="47.42" y2="122.29"/><line class="cls-1" x1="39.13" y1="125.7" x2="43.86" y2="125.7"/><line class="cls-1" x1="39.13" y1="124" x2="42.46" y2="124"/><line class="cls-1" x1="45.1" y1="124" x2="47.21" y2="124"/><circle class="cls-2" cx="345.55" cy="182.05" r="9.1"/><circle class="cls-2" cx="345.55" cy="182.05" r="6.68"/><line class="cls-1" x1="318.86" y1="164.85" x2="318.86" y2="167.27"/><line class="cls-1" x1="326.67" y1="169.28" x2="324.63" y2="170.57"/><line class="cls-1" x1="335.88" y1="170.73" x2="333.85" y2="169.4"/><line class="cls-1" x1="335.03" y1="167.82" x2="336.73" y2="169.53"/><rect class="cls-2" x="304.03" y="188.6" width="24.3" height="14.69" rx="3.59" ry="3.59"/><line class="cls-1" x1="302.78" y1="192.26" x2="309.08" y2="192.26"/><line class="cls-1" x1="312.01" y1="192.26" x2="316.66" y2="192.26"/><line class="cls-1" x1="319.62" y1="192.26" x2="321.94" y2="192.26"/><rect class="cls-1" x="307.2" y="191.84" width="4.35" height="4.35"/><line class="cls-1" x1="310.1" y1="191.84" x2="310.1" y2="193.56"/><line class="cls-1" x1="308.54" y1="194.01" x2="308.54" y2="195.73"/><line class="cls-1" x1="325.78" y1="188.6" x2="325.78" y2="203.29"/><circle class="cls-1" cx="300.46" cy="219.56" r="1.34"/><circle class="cls-1" cx="300.99" cy="236.44" r="1.15"/><polygon class="cls-1" points="301.33 229.43 290.44 229.43 288.78 222.41 303.04 222.41 301.33 229.43"/><path class="cls-1" d="M290.84,236.95l1.65-1.65h9.14a1.41,1.41,0,0,0,1.41-1.41h0a1.41,1.41,0,0,0-1.41-1.41H291.17l-3.55-15h-3.45"/><line class="cls-1" x1="289.37" y1="224.66" x2="298.47" y2="224.66"/><line class="cls-1" x1="289.87" y1="227.01" x2="295.91" y2="227.01"/><circle class="cls-1" cx="311.3" cy="94.37" r="1.34"/><circle class="cls-1" cx="321.58" cy="93.68" r="1.15"/><polygon class="cls-1" points="321.92 86.67 311.03 86.67 309.37 79.65 323.63 79.65 321.92 86.67"/><path class="cls-1" d="M311.43,94.18l1.65-1.65h9.14a1.41,1.41,0,0,0,1.41-1.41h0a1.41,1.41,0,0,0-1.41-1.41H311.76l-3.55-15h-3.45"/><line class="cls-1" x1="310.46" y1="84.25" x2="316.5" y2="84.25"/><path class="cls-1" d="M303.9,131.54l2.31-.31-.37-2.7-2.3.31c-.08-.23-.17-.46-.27-.68l1.9-1.34-1.57-2.23-1.9,1.34c-.17-.17-.36-.33-.55-.48l1.07-2.06-2.42-1.25-1.07,2.06a7.41,7.41,0,0,0-1-.23v-2.5H295v2.63a7.75,7.75,0,0,0-.76.23l-1.19-2-2.34,1.38,1.19,2c-.18.16-.35.33-.52.51l-2-1.23-1.44,2.31,2,1.23a6.87,6.87,0,0,0-.23.69l-2.32-.18-.21,2.72,2.31.18a7.07,7.07,0,0,0,.12.72l-2.14.91,1.07,2.5,2.13-.91c.14.2.28.4.44.59l-1.48,1.79,2.1,1.73,1.48-1.79a7,7,0,0,0,.66.32l-.48,2.27,2.66.57.49-2.27h.16l.57,0,.61,2.24,2.62-.72-.61-2.24a6.34,6.34,0,0,0,.64-.36l1.58,1.71,2-1.85-1.58-1.71c.14-.19.28-.4.41-.61l2.19.79.92-2.56-2.19-.79A7.29,7.29,0,0,0,303.9,131.54ZM296.67,135a3.86,3.86,0,1,1,3.86-3.86A3.86,3.86,0,0,1,296.67,135Z"/><circle class="cls-1" cx="287.16" cy="109.08" r="3.86"/><path class="cls-2" d="M312,254.19l1.08,0-.08-1.92-1.22,0a6.47,6.47,0,0,0-.38-1l1-.61-1-1.66-1.13.66a6.48,6.48,0,0,0-.78-.73l.67-1.08-1.64-1-.71,1.14a6.53,6.53,0,0,0-.85-.26v-1.17h-1.92v1a5.91,5.91,0,0,0-.85.12l-.44-.94-1.75.81.38.81a6.44,6.44,0,0,0-1,.72l-.71-.54-1.17,1.53.61.47a6.59,6.59,0,0,0-.58,1.18l-.78-.13-.31,1.9.69.11c0,.12,0,.23,0,.35a6.37,6.37,0,0,0,.08,1l-.71.24.62,1.83.67-.23a6.27,6.27,0,0,0,.71,1.13l-.54.57,1.4,1.32.53-.56a6.34,6.34,0,0,0,1.13.63l-.23.84,1.86.51.24-.87a6.47,6.47,0,0,0,.67,0l.32,0,.11.73,1.9-.29-.13-.83a6.27,6.27,0,0,0,1.16-.56l.49.66,1.54-1.15-.56-.76a6.56,6.56,0,0,0,.72-1l.85.41.83-1.74-1-.47A6.39,6.39,0,0,0,312,254.19Zm-6.21.79a1.12,1.12,0,1,1,1.12-1.12A1.12,1.12,0,0,1,305.82,255Z"/><circle class="cls-1" cx="301.17" cy="187.68" r="0.92"/><circle class="cls-1" cx="298.25" cy="150.37" r="0.92"/><circle class="cls-1" cx="293.47" cy="155.91" r="0.92"/><circle class="cls-1" cx="293.36" cy="194.87" r="0.92"/><circle class="cls-1" cx="326.42" cy="175.89" r="0.92"/><circle class="cls-1" cx="294.39" cy="230.9" r="0.92"/><circle class="cls-1" cx="309.86" cy="229.56" r="0.92"/><line class="cls-1" x1="302.69" y1="102.75" x2="292.1" y2="102.75"/><line class="cls-1" x1="299.06" y1="99.51" x2="292.52" y2="99.51"/><line class="cls-1" x1="296.68" y1="223.52" x2="293.47" y2="223.52"/><line class="cls-1" x1="333.21" y1="194.82" x2="330" y2="194.82"/><line class="cls-1" x1="331.95" y1="102.42" x2="328.74" y2="102.42"/><line class="cls-1" x1="287.86" y1="162.43" x2="284.64" y2="162.43"/><line class="cls-1" x1="292.72" y1="169.23" x2="289.51" y2="169.23"/><line class="cls-1" x1="293.47" y1="217.27" x2="290.26" y2="217.27"/><line class="cls-1" x1="283.88" y1="151.3" x2="280.67" y2="151.3"/><line class="cls-1" x1="325.15" y1="167.35" x2="321.94" y2="167.35"/><path class="cls-1" d="M234,68.73h0a1.27,1.27,0,0,1-1.26-1.26V62.55A1.27,1.27,0,0,1,234,61.29h0a1.27,1.27,0,0,1,1.26,1.26v4.91A1.27,1.27,0,0,1,234,68.73Z"/><path class="cls-1" d="M253.49,68.73h0a1.27,1.27,0,0,1-1.26-1.26V62.55a1.27,1.27,0,0,1,1.26-1.26h0a1.27,1.27,0,0,1,1.26,1.26v4.91A1.27,1.27,0,0,1,253.49,68.73Z"/><path class="cls-1" d="M234,61.29a9.73,9.73,0,1,1,19.45,0"/><path class="cls-1" d="M252.69,68.73l-1.21,3.22a5.64,5.64,0,0,1-6.89,3.42h0"/><circle class="cls-1" cx="243.76" cy="74.83" r="1.48"/><line class="cls-1" x1="244.92" y1="69.13" x2="241.39" y2="69.13"/><circle class="cls-1" cx="200.19" cy="62.03" r="0.93"/><path class="cls-2" d="M182.3,50.11v15.1h.06a2.47,2.47,0,0,0,2.45-2.12l1.89-13.26"/><circle class="cls-2" cx="192.26" cy="46.48" r="3.1"/><path class="cls-2" d="M190.57,39.87V53.09A3.07,3.07,0,0,0,187.5,50H182a3.54,3.54,0,0,1,0-7.08h5.52A3.07,3.07,0,0,0,190.57,39.87Z"/><line class="cls-2" x1="184.16" y1="42.94" x2="184.16" y2="49.83"/><path class="cls-2" d="M191.41,54.51h0a.85.85,0,0,1-.84-.84V39.05a.85.85,0,0,1,.84-.84h0a.85.85,0,0,1,.84.84V53.67A.85.85,0,0,1,191.41,54.51Z"/><line class="cls-5" x1="202.49" y1="37.53" x2="205.2" y2="35.47"/><line class="cls-5" x1="196.16" y1="42.36" x2="200.1" y2="39.35"/><line class="cls-5" x1="199.99" y1="43.39" x2="196.96" y2="44.93"/><line class="cls-5" x1="207.1" y1="39.79" x2="202.67" y2="42.03"/><line class="cls-5" x1="202.49" y1="55.16" x2="205.2" y2="57.22"/><line class="cls-5" x1="196.16" y1="50.33" x2="200.1" y2="53.34"/><line class="cls-5" x1="199.99" y1="49.3" x2="196.96" y2="47.77"/><line class="cls-5" x1="207.1" y1="52.9" x2="202.67" y2="50.66"/><line class="cls-1" x1="198.89" y1="46.36" x2="200.72" y2="46.36"/><line class="cls-1" x1="202.67" y1="46.36" x2="206.53" y2="46.36"/><line class="cls-1" x1="208.85" y1="46.38" x2="210.43" y2="46.38"/><circle class="cls-1" cx="169.5" cy="46.36" r="0.93"/><circle class="cls-1" cx="176.75" cy="55.63" r="0.93"/><circle class="cls-1" cx="161.52" cy="37.53" r="0.93"/><line class="cls-1" x1="161.09" y1="47.29" x2="157.86" y2="47.29"/><line class="cls-1" x1="177.44" y1="39.04" x2="174.21" y2="39.04"/><line class="cls-1" x1="194.11" y1="60.9" x2="190.88" y2="60.9"/><path class="cls-1" d="M119.19,256.24h-.07l1.44,8.91,7-5.68A12.39,12.39,0,0,0,119.19,256.24Z"/><path class="cls-1" d="M106,266.2h10.05l-1.61-10A12.54,12.54,0,0,0,106,266.2Z"/><path class="cls-1" d="M123.75,266.2h6.88a12.45,12.45,0,0,0-1.54-4.35Z"/><path class="cls-1" d="M118.31,280.65h.07l-1.49-9.2-7.66,5.26A12.4,12.4,0,0,0,118.31,280.65Z"/><path class="cls-1" d="M130.63,270.07H120.58l1.61,10A12.54,12.54,0,0,0,130.63,270.07Z"/><polyline class="cls-1" points="105.92 269.5 104.47 272.25 107.21 273.7"/><line class="cls-1" x1="105.83" y1="271.77" x2="115.86" y2="269.2"/><circle class="cls-1" cx="110.12" cy="290.22" r="1.35"/><line class="cls-1" x1="102.29" y1="283.08" x2="97.58" y2="283.08"/><line class="cls-1" x1="126.39" y1="285.45" x2="141.89" y2="285.45"/><line class="cls-1" x1="131.71" y1="280.71" x2="141.28" y2="280.71"/><path class="cls-2" d="M95.74,81.71a5.23,5.23,0,0,0-4.43,8l-1.52,1.52.15.16a2.62,2.62,0,0,0,3.46.21,5.23,5.23,0,1,0,2.34-9.91Z"/><path class="cls-2" d="M87.61,78.33a5.23,5.23,0,0,1,4.43,8l1.52,1.52-.15.16a2.62,2.62,0,0,1-3.46.21,5.23,5.23,0,1,1-2.34-9.91Z"/><path class="cls-2" d="M232.26,44.8a6.61,6.61,0,1,1-13.22,0c0-3.65,3-9.51,6.61-9.51S232.26,41.15,232.26,44.8Z"/><path class="cls-2" d="M229.28,35l.71-3.42a.89.89,0,0,0-1.07-1.11l-2.31.74a3,3,0,0,1-1.84,0l-2.38-.75a.89.89,0,0,0-1.07,1.11L222,35"/><path class="cls-2" d="M228.91,37.26H222.4a1.14,1.14,0,0,1-1.14-1.14h0A1.14,1.14,0,0,1,222.4,35h6.51A1.14,1.14,0,0,1,230,36.13h0A1.14,1.14,0,0,1,228.91,37.26Z"/><text class="cls-6" transform="translate(223.72 47.01)">$</text><rect class="cls-2" x="260.31" y="69.49" width="16.54" height="13.67" rx="3.88" ry="3.88"/><line class="cls-2" x1="260.31" y1="79.53" x2="276.85" y2="79.53"/><path class="cls-2" d="M53.31,251.74a1.45,1.45,0,0,1-1-.42l-4.62-4.62a1.45,1.45,0,1,1,2-2l3.46,3.46,5.34-6.9A1.45,1.45,0,1,1,60.8,243l-6.34,8.2a1.45,1.45,0,0,1-1.05.56Z"/><rect class="cls-1" x="51.87" y="194.94" width="2.49" height="7.14" transform="translate(106.23 397.02) rotate(180)"/><rect class="cls-1" x="47.02" y="193" width="2.49" height="9.08" transform="translate(96.53 395.09) rotate(180)"/><rect class="cls-1" x="42.17" y="190.94" width="2.49" height="11.14" transform="translate(86.83 393.03) rotate(180)"/><rect class="cls-1" x="37.32" y="187.8" width="2.49" height="14.28" transform="translate(77.13 389.88) rotate(180)"/><path class="cls-1" d="M37.44,180.8c4,4.76,7.81,9,16.92,9"/><polyline class="cls-1" points="40.36 180.8 37.44 180.8 37.44 183.7"/><path class="cls-1" d="M84.67,184.41a5.11,5.11,0,0,0-5.11,5.11c0,3.07,5.11,10.27,5.11,10.27s5.11-7.28,5.11-10.27A5.11,5.11,0,0,0,84.67,184.41Zm0,6.45a1.92,1.92,0,1,1,1.92-1.92A1.92,1.92,0,0,1,84.67,190.86Z"/><path class="cls-1" d="M85.93,109.95a5.11,5.11,0,0,0-5.11,5.11c0,3.07,5.11,10.27,5.11,10.27S91,118.05,91,115.06A5.11,5.11,0,0,0,85.93,109.95Zm0,6.45a1.92,1.92,0,1,1,1.92-1.92A1.92,1.92,0,0,1,85.93,116.4Z"/><path class="cls-1" d="M70.87,228.25a5.11,5.11,0,0,0-5.11,5.11c0,3.07,5.11,10.27,5.11,10.27S76,236.36,76,233.36A5.11,5.11,0,0,0,70.87,228.25Zm0,6.45a1.92,1.92,0,1,1,1.92-1.92A1.92,1.92,0,0,1,70.87,234.7Z"/><circle class="cls-2" cx="89.73" cy="154.28" r="9.98"/><circle class="cls-2" cx="89.73" cy="154.28" r="7.33"/><line class="cls-1" x1="89.73" y1="144.3" x2="89.73" y2="146.96"/><line class="cls-1" x1="83.34" y1="150.7" x2="81.12" y2="149.24"/><line class="cls-1" x1="82.4" y1="147.5" x2="84.28" y2="149.38"/><text class="cls-7" transform="translate(87.21 156.49)">%</text><path class="cls-1" d="M151.45,272v1.1a1.82,1.82,0,0,0,1.82,1.82h11.88"/><path class="cls-1" d="M154.88,272V258.52h11.9V273.3a1.63,1.63,0,0,1-1.63,1.63h0a1.63,1.63,0,0,1-1.63-1.63V272H151.45"/><rect class="cls-2" x="44.65" y="135.65" width="26.65" height="16.11" rx="3.59" ry="3.59"/><line class="cls-1" x1="47.59" y1="141.87" x2="54.5" y2="141.87"/><line class="cls-1" x1="57.72" y1="141.87" x2="62.81" y2="141.87"/><line class="cls-1" x1="66.06" y1="141.87" x2="68.6" y2="141.87"/><rect class="cls-1" x="48.13" y="139.2" width="4.77" height="4.77"/><line class="cls-1" x1="51.31" y1="139.2" x2="51.31" y2="141.09"/><line class="cls-1" x1="49.59" y1="141.59" x2="49.59" y2="143.47"/><line class="cls-1" x1="68.51" y1="135.65" x2="68.51" y2="151.77"/><path class="cls-1" d="M94.23,226l.93,2.17a1.92,1.92,0,0,0,1.66,1.15,1.49,1.49,0,0,1,2.63.19l.91,2.1a1.49,1.49,0,0,1-.78,2l-.49.21a4.36,4.36,0,0,1-5.71-2.27l-2.8-6.5a4.36,4.36,0,0,1,2.27-5.71l.49-.21a1.49,1.49,0,0,1,2,.78l.91,2.1a1.48,1.48,0,0,1-1.67,2A1.92,1.92,0,0,0,94.23,226Z"/><circle class="cls-1" cx="70.2" cy="112.55" r="1.47"/><circle class="cls-1" cx="53" cy="107.08" r="1.26"/><polygon class="cls-1" points="52.62 99.39 64.56 99.39 66.39 91.69 50.75 91.69 52.62 99.39"/><path class="cls-1" d="M64.13,107.63l-1.81-1.81h-10a1.54,1.54,0,0,1-1.54-1.54h0a1.54,1.54,0,0,1,1.54-1.54H63.77l3.89-16.45h3.78"/><line class="cls-1" x1="65.75" y1="94.16" x2="55.76" y2="94.16"/><line class="cls-1" x1="65.19" y1="96.74" x2="58.57" y2="96.74"/><path class="cls-1" d="M88.46,253.81l2-.27-.32-2.32-2,.27c-.07-.2-.15-.39-.23-.58l1.63-1.15-1.35-1.91L86.58,249c-.15-.15-.31-.28-.47-.41l.92-1.77L85,245.73,84,247.5a6.36,6.36,0,0,0-.9-.19v-2.15H80.8v2.26a6.64,6.64,0,0,0-.65.19l-1-1.72-2,1.19,1,1.72c-.15.14-.3.29-.45.44L76,248.19l-1.24,2,1.7,1.05a5.92,5.92,0,0,0-.19.6l-2-.15L74.08,254l2,.15a6.07,6.07,0,0,0,.1.62l-1.84.78.92,2.15,1.83-.78c.12.17.24.34.38.51L76.19,259l1.8,1.49,1.27-1.54a6,6,0,0,0,.57.28l-.41,1.95,2.28.49.42-2h.14l.49,0,.53,1.93,2.25-.62L85,259.05a5.45,5.45,0,0,0,.55-.31l1.36,1.47,1.72-1.59-1.36-1.47c.12-.17.24-.34.35-.52l1.88.68.79-2.2-1.88-.68A6.29,6.29,0,0,0,88.46,253.81Zm-6.21,3a3.32,3.32,0,1,1,3.32-3.32A3.32,3.32,0,0,1,82.25,256.78Z"/><circle class="cls-1" cx="82.25" cy="253.47" r="3.32"/><circle class="cls-1" cx="77.97" cy="162.04" r="1.01"/><circle class="cls-1" cx="61.45" cy="174.74" r="1.01"/><circle class="cls-1" cx="97.62" cy="112.66" r="1.01"/><circle class="cls-1" cx="83.92" cy="210.12" r="1.01"/><circle class="cls-1" cx="77.97" cy="176.74" r="1.01"/><line class="cls-1" x1="53.93" y1="169.58" x2="42.32" y2="169.58"/><line class="cls-1" x1="49.95" y1="166.02" x2="42.78" y2="166.02"/><line class="cls-1" x1="71.44" y1="150.54" x2="67.91" y2="150.54"/><line class="cls-1" x1="73.3" y1="115.52" x2="69.78" y2="115.52"/><line class="cls-1" x1="52.77" y1="211.8" x2="49.25" y2="211.8"/><line class="cls-1" x1="104.8" y1="76.32" x2="101.28" y2="76.32"/><line class="cls-1" x1="97.11" y1="242.05" x2="93.59" y2="242.05"/><line class="cls-1" x1="78.11" y1="171.87" x2="89.73" y2="171.87"/><line class="cls-1" x1="82.1" y1="168.31" x2="89.26" y2="168.31"/><rect class="cls-2" x="113.69" y="59.38" width="7.97" height="4.34"/><rect class="cls-2" x="108.73" y="63.72" width="17.9" height="3.56" rx="1.34" ry="1.34"/><path class="cls-2" d="M146.58,91.11a1.43,1.43,0,0,1-1-.42L141,86.13a1.43,1.43,0,1,1,2-2l3.42,3.42,5.27-6.81A1.43,1.43,0,1,1,154,82.46l-6.27,8.1a1.43,1.43,0,0,1-1,.55Z"/><line class="cls-1" x1="110.38" y1="91.91" x2="107.07" y2="94.01"/><line class="cls-1" x1="129.58" y1="84.24" x2="124.38" y2="84.24"/><line class="cls-1" x1="134.27" y1="64.48" x2="151.42" y2="64.48"/><line class="cls-1" x1="140.16" y1="59.23" x2="150.74" y2="59.23"/><g class="cls-8"><line class="cls-1" x1="300.25" y1="26.09" x2="313.76" y2="26.09"/><line class="cls-1" x1="300.25" y1="39.53" x2="313.76" y2="39.53"/><line class="cls-1" x1="300.25" y1="35.05" x2="313.76" y2="35.05"/><line class="cls-1" x1="300.25" y1="30.57" x2="309.43" y2="30.57"/><line class="cls-1" x1="336.16" y1="19.64" x2="330.35" y2="19.64"/><path class="cls-2" d="M241.69,313a7.71,7.71,0,1,0-3.07,2.78,3.84,3.84,0,0,0,5.08-.31l.22-.24Z"/><path class="cls-2" d="M226,306.26a7.68,7.68,0,0,0-6.5,11.78l-2.23,2.23.22.24a3.84,3.84,0,0,0,5.08.31A7.68,7.68,0,1,0,226,306.26Z"/><circle class="cls-3" cx="222.62" cy="314.25" r="0.89"/><circle class="cls-3" cx="226.03" cy="314.25" r="0.89"/><circle class="cls-3" cx="229.44" cy="314.25" r="0.89"/><circle class="cls-3" cx="232.26" cy="308.94" r="0.71"/><circle class="cls-3" cx="234.96" cy="308.94" r="0.71"/><circle class="cls-3" cx="237.66" cy="308.94" r="0.71"/><path class="cls-2" d="M286.58,294.16l1.33-.06-.1-2.37-1.5.06a8,8,0,0,0-.47-1.28l1.28-.75-1.2-2-1.4.82a8,8,0,0,0-1-.9l.82-1.33-2-1.25-.87,1.41a8.06,8.06,0,0,0-1-.32v-1.44h-2.37V286a7.29,7.29,0,0,0-1,.14L276.5,285l-2.15,1,.46,1a7.94,7.94,0,0,0-1.27.89l-.87-.67-1.44,1.89.76.57a8.13,8.13,0,0,0-.72,1.45l-1-.15-.38,2.34.85.14c0,.15,0,.29,0,.44a7.86,7.86,0,0,0,.1,1.21l-.87.3.76,2.25.82-.28a7.73,7.73,0,0,0,.87,1.39l-.66.7,1.73,1.63.66-.7a7.81,7.81,0,0,0,1.39.77l-.29,1,2.29.63.3-1.07a8,8,0,0,0,.83,0l.4,0,.13.9,2.35-.35-.15-1a7.73,7.73,0,0,0,1.43-.7l.61.81,1.9-1.42-.7-.94a8.08,8.08,0,0,0,.88-1.23l1,.5,1-2.14-1.21-.57A7.88,7.88,0,0,0,286.58,294.16Zm-7.65,1a1.38,1.38,0,1,1,1.38-1.38A1.38,1.38,0,0,1,278.92,295.14Z"/><circle class="cls-1" cx="264.15" cy="294.32" r="1.14"/><circle class="cls-1" cx="294.08" cy="317.22" r="1.14"/><line class="cls-1" x1="255.58" y1="283.62" x2="268.64" y2="283.62"/><line class="cls-1" x1="260.06" y1="279.62" x2="268.12" y2="279.62"/><line class="cls-1" x1="169.02" y1="309.43" x2="158.58" y2="309.43"/><path class="cls-1" d="M181.84,310v4.54a3.89,3.89,0,0,0,3.89,3.89h7.53l5.84,4.26-.3-4.26a3.89,3.89,0,0,0,3.89-3.89V310a3.89,3.89,0,0,0-3.89-3.89H185.73A3.89,3.89,0,0,0,181.84,310Z"/><line class="cls-1" x1="199.1" y1="314.86" x2="191.65" y2="314.86"/><line class="cls-1" x1="199.1" y1="312.17" x2="193.86" y2="312.17"/><line class="cls-1" x1="189.7" y1="312.17" x2="186.37" y2="312.17"/><path class="cls-1" d="M188.67,315.65V321a4.59,4.59,0,0,1-4.59,4.59h-8.89l-6.9,5,.36-5A4.59,4.59,0,0,1,164,321v-5.37a4.59,4.59,0,0,1,4.6-4.59h15.43A4.59,4.59,0,0,1,188.67,315.65Z"/><line class="cls-1" x1="171.38" y1="315.02" x2="183.71" y2="315.02"/><line class="cls-1" x1="168.28" y1="321.37" x2="177.08" y2="321.37"/><line class="cls-1" x1="168.28" y1="318.2" x2="174.48" y2="318.2"/><line class="cls-1" x1="179.39" y1="318.2" x2="183.32" y2="318.2"/><line class="cls-1" x1="294.79" y1="71.46" x2="313.03" y2="71.46"/><circle class="cls-1" cx="275.57" cy="25.43" r="1.85"/><path class="cls-2" d="M299.38,256a7.45,7.45,0,1,1-14.9,0c0-4.11,3.34-10.71,7.45-10.71S299.38,251.93,299.38,256Z"/><path class="cls-2" d="M296,245l.8-3.85a1,1,0,0,0-1.2-1.25l-2.61.84a3.42,3.42,0,0,1-2.08,0l-2.68-.85a1,1,0,0,0-1.2,1.25l.8,3.86"/><path class="cls-2" d="M295.6,247.55h-7.34a1.29,1.29,0,0,1-1.28-1.28h0a1.29,1.29,0,0,1,1.28-1.28h7.34a1.29,1.29,0,0,1,1.28,1.28h0A1.29,1.29,0,0,1,295.6,247.55Z"/><text class="cls-9" transform="translate(289.75 258.53)">$</text><rect class="cls-2" x="351.63" y="223.45" width="25.4" height="20.99" rx="3.88" ry="3.88"/><line class="cls-2" x1="351.63" y1="238.87" x2="377.02" y2="238.87"/><circle class="cls-3" cx="336.09" cy="241.72" r="1"/><rect class="cls-2" x="333.04" y="244.38" width="6.09" height="3.32"/><rect class="cls-2" x="369.55" y="226.03" width="13.67" height="2.72" rx="1.02" ry="1.02"/><path class="cls-2" d="M368.92,110.21a1.63,1.63,0,0,1-1.15-.48l-5.21-5.21a1.63,1.63,0,1,1,2.31-2.31l3.9,3.9,6-7.78a1.63,1.63,0,0,1,2.58,2l-7.15,9.24a1.63,1.63,0,0,1-1.19.63Z"/><rect class="cls-1" x="323.66" y="166.22" width="3.42" height="9.8"/><rect class="cls-1" x="330.31" y="163.56" width="3.42" height="12.45"/><rect class="cls-1" x="336.97" y="160.73" width="3.42" height="15.28"/><rect class="cls-1" x="343.62" y="156.42" width="3.42" height="19.6"/><path class="cls-1" d="M346.87,146.82c-5.5,6.54-10.72,12.38-23.21,12.38"/><polyline class="cls-1" points="342.87 146.82 346.87 146.82 346.87 150.8"/><path class="cls-1" d="M345.52,103.06a5.76,5.76,0,0,0-5.76,5.76c0,3.46,5.76,11.58,5.76,11.58s5.76-8.21,5.76-11.58A5.76,5.76,0,0,0,345.52,103.06Zm0,7.27a2.16,2.16,0,1,1,2.16-2.16A2.16,2.16,0,0,1,345.52,110.33Z"/><path class="cls-1" d="M311.6,275a5.76,5.76,0,0,0-5.76,5.76c0,3.46,5.76,11.58,5.76,11.58s5.76-8.21,5.76-11.58A5.76,5.76,0,0,0,311.6,275Zm0,7.27a2.16,2.16,0,1,1,2.16-2.16A2.16,2.16,0,0,1,311.6,282.31Z"/><path class="cls-1" d="M377.86,137.25v4.67a4,4,0,0,0,4,4h7.74l6,4.38-.31-4.38a4,4,0,0,0,4-4v-4.67a4,4,0,0,0-4-4H381.85A4,4,0,0,0,377.86,137.25Z"/><line class="cls-1" x1="395.6" y1="142.23" x2="387.94" y2="142.23"/><line class="cls-1" x1="395.6" y1="139.47" x2="390.21" y2="139.47"/><line class="cls-1" x1="385.93" y1="139.47" x2="382.52" y2="139.47"/><path class="cls-1" d="M384.88,143v5.52a4.72,4.72,0,0,1-4.72,4.72H371l-7.1,5.17.37-5.17a4.72,4.72,0,0,1-4.73-4.72V143a4.72,4.72,0,0,1,4.73-4.72h15.87A4.72,4.72,0,0,1,384.88,143Z"/><line class="cls-1" x1="367.1" y1="142.4" x2="379.78" y2="142.4"/><line class="cls-1" x1="363.91" y1="148.93" x2="372.96" y2="148.93"/><line class="cls-1" x1="363.91" y1="145.66" x2="370.28" y2="145.66"/><line class="cls-1" x1="375.34" y1="145.66" x2="379.37" y2="145.66"/><path class="cls-1" d="M12.32,110.76v3a2.58,2.58,0,0,0,2.58,2.58h5l3.88,2.83-.2-2.83a2.58,2.58,0,0,0,2.59-2.58v-3a2.58,2.58,0,0,0-2.59-2.58H14.91A2.58,2.58,0,0,0,12.32,110.76Z"/><line class="cls-1" x1="23.79" y1="113.98" x2="18.84" y2="113.98"/><line class="cls-1" x1="23.79" y1="112.2" x2="20.31" y2="112.2"/><line class="cls-1" x1="17.54" y1="112.2" x2="15.33" y2="112.2"/><path class="cls-1" d="M16.86,114.5v3.57a3.05,3.05,0,0,1-3.05,3.05H7.9l-4.59,3.34.24-3.34A3.05,3.05,0,0,1,.5,118.07V114.5a3.05,3.05,0,0,1,3.05-3.05H13.81A3.05,3.05,0,0,1,16.86,114.5Z"/><line class="cls-1" x1="5.37" y1="114.09" x2="13.57" y2="114.09"/><line class="cls-1" x1="3.32" y1="118.31" x2="9.16" y2="118.31"/><line class="cls-1" x1="3.32" y1="116.2" x2="7.43" y2="116.2"/><line class="cls-1" x1="10.69" y1="116.2" x2="13.3" y2="116.2"/><circle class="cls-2" cx="382.13" cy="187.97" r="11.25"/><circle class="cls-2" cx="382.13" cy="187.97" r="8.26"/><line class="cls-1" x1="349.14" y1="166.7" x2="349.14" y2="169.7"/><line class="cls-1" x1="358.8" y1="172.18" x2="356.27" y2="173.78"/><line class="cls-1" x1="370.18" y1="173.98" x2="367.67" y2="172.33"/><line class="cls-1" x1="369.12" y1="170.38" x2="371.23" y2="172.49"/><rect class="cls-2" x="330.8" y="196.07" width="30.05" height="18.17" rx="3.59" ry="3.59"/><line class="cls-1" x1="329.26" y1="200.59" x2="337.05" y2="200.59"/><line class="cls-1" x1="340.68" y1="200.59" x2="346.41" y2="200.59"/><line class="cls-1" x1="350.08" y1="200.59" x2="352.94" y2="200.59"/><rect class="cls-1" x="334.72" y="200.07" width="5.38" height="5.38"/><line class="cls-1" x1="338.31" y1="200.07" x2="338.31" y2="202.19"/><line class="cls-1" x1="336.37" y1="202.76" x2="336.37" y2="204.88"/><line class="cls-1" x1="357.7" y1="196.07" x2="357.7" y2="214.23"/><circle class="cls-1" cx="326.39" cy="234.34" r="1.66"/><circle class="cls-1" cx="327.04" cy="255.21" r="1.42"/><polygon class="cls-1" points="327.47 246.54 314.01 246.54 311.95 237.86 329.58 237.86 327.47 246.54"/><path class="cls-1" d="M314.5,255.84l2-2h11.3a1.74,1.74,0,0,0,1.74-1.74h0a1.74,1.74,0,0,0-1.74-1.74H314.9l-4.39-18.54h-4.26"/><line class="cls-1" x1="312.67" y1="240.65" x2="323.93" y2="240.65"/><line class="cls-1" x1="313.3" y1="243.56" x2="320.77" y2="243.56"/><circle class="cls-1" cx="339.79" cy="79.57" r="1.66"/><circle class="cls-1" cx="352.5" cy="78.72" r="1.42"/><polygon class="cls-1" points="352.92 70.05 339.46 70.05 337.41 61.37 355.03 61.37 352.92 70.05"/><path class="cls-1" d="M340,79.34l2-2h11.3A1.74,1.74,0,0,0,355,75.56h0a1.74,1.74,0,0,0-1.74-1.74H340.36L336,55.27H331.7"/><line class="cls-1" x1="338.76" y1="67.06" x2="346.22" y2="67.06"/><path class="cls-1" d="M330.64,125.52l2.86-.38-.45-3.33-2.84.38c-.1-.29-.21-.57-.33-.84l2.35-1.65-1.94-2.75-2.35,1.65c-.21-.21-.45-.41-.68-.6l1.32-2.55-3-1.55-1.32,2.55a9.16,9.16,0,0,0-1.29-.28v-3.09h-3.37v3.25a9.58,9.58,0,0,0-.94.28l-1.47-2.47-2.89,1.71,1.47,2.47c-.22.2-.44.41-.64.63l-2.44-1.51-1.78,2.86,2.44,1.51a8.49,8.49,0,0,0-.28.86l-2.87-.22-.26,3.36,2.86.22a8.74,8.74,0,0,0,.15.89L310.31,128l1.32,3.09,2.64-1.12c.17.25.35.49.54.73L313,133l2.59,2.14,1.82-2.21a8.62,8.62,0,0,0,.82.4l-.6,2.8,3.29.7.6-2.81h.2a7,7,0,0,0,.7,0l.76,2.77,3.24-.89-.76-2.77a7.84,7.84,0,0,0,.79-.44l2,2.11,2.47-2.28-2-2.11c.18-.24.35-.49.5-.75l2.71,1,1.14-3.17-2.71-1A9,9,0,0,0,330.64,125.52Zm-8.93,4.28a4.77,4.77,0,1,1,4.77-4.77A4.77,4.77,0,0,1,321.71,129.8Z"/><circle class="cls-1" cx="309.95" cy="97.76" r="4.77"/><path class="cls-2" d="M340.69,277.16l1.34-.06-.1-2.38-1.51.06a8,8,0,0,0-.47-1.28l1.28-.75L340,270.7l-1.4.82a8,8,0,0,0-1-.9l.82-1.33-2-1.25-.87,1.41a8.08,8.08,0,0,0-1.05-.32v-1.44h-2.38v1.27a7.31,7.31,0,0,0-1,.14l-.54-1.16-2.16,1,.47,1a8,8,0,0,0-1.28.89l-.88-.67-1.44,1.9.76.58a8.15,8.15,0,0,0-.72,1.45l-1-.16-.38,2.35.86.14c0,.15,0,.29,0,.44a7.88,7.88,0,0,0,.1,1.21l-.88.3.76,2.26.82-.28a7.75,7.75,0,0,0,.87,1.39l-.67.7,1.73,1.64.66-.7a7.84,7.84,0,0,0,1.39.78l-.29,1,2.29.64.3-1.08a8,8,0,0,0,.83,0l.4,0,.13.9,2.35-.36-.16-1a7.75,7.75,0,0,0,1.43-.7l.61.82,1.91-1.42-.7-.94a8.11,8.11,0,0,0,.89-1.24l1.05.5,1-2.15-1.21-.58A7.9,7.9,0,0,0,340.69,277.16Zm-7.68,1a1.39,1.39,0,1,1,1.38-1.39A1.39,1.39,0,0,1,333,278.14Z"/><circle class="cls-1" cx="327.27" cy="194.93" r="1.14"/><circle class="cls-1" cx="323.66" cy="148.81" r="1.14"/><circle class="cls-1" cx="317.75" cy="155.65" r="1.14"/><circle class="cls-1" cx="317.62" cy="203.82" r="1.14"/><circle class="cls-1" cx="358.49" cy="180.35" r="1.14"/><circle class="cls-1" cx="318.89" cy="248.36" r="1.14"/><circle class="cls-1" cx="338.02" cy="246.7" r="1.14"/><line class="cls-1" x1="329.15" y1="89.93" x2="316.06" y2="89.93"/><line class="cls-1" x1="324.66" y1="85.92" x2="316.58" y2="85.92"/><line class="cls-1" x1="321.72" y1="239.23" x2="317.75" y2="239.23"/><line class="cls-1" x1="366.88" y1="203.76" x2="362.91" y2="203.76"/><line class="cls-1" x1="365.32" y1="89.53" x2="361.35" y2="89.53"/><line class="cls-1" x1="310.81" y1="163.71" x2="306.84" y2="163.71"/><line class="cls-1" x1="316.82" y1="172.12" x2="312.85" y2="172.12"/><line class="cls-1" x1="317.75" y1="231.51" x2="313.78" y2="231.51"/><line class="cls-1" x1="305.89" y1="149.95" x2="301.92" y2="149.95"/><line class="cls-1" x1="356.92" y1="169.79" x2="352.94" y2="169.79"/><path class="cls-1" d="M244.27,47.87h0a1.56,1.56,0,0,1-1.56-1.56V40.24a1.56,1.56,0,0,1,1.56-1.56h0a1.56,1.56,0,0,1,1.56,1.56v6.07A1.56,1.56,0,0,1,244.27,47.87Z"/><path class="cls-1" d="M268.32,47.87h0a1.56,1.56,0,0,1-1.56-1.56V40.24a1.56,1.56,0,0,1,1.56-1.56h0a1.56,1.56,0,0,1,1.56,1.56v6.07A1.56,1.56,0,0,1,268.32,47.87Z"/><path class="cls-1" d="M244.27,38.68a12,12,0,1,1,24,0"/><path class="cls-1" d="M267.33,47.87l-1.49,4a7,7,0,0,1-8.52,4.23h0"/><circle class="cls-1" cx="256.29" cy="55.42" r="1.83"/><line class="cls-1" x1="257.73" y1="48.36" x2="253.37" y2="48.36"/><circle class="cls-1" cx="202.43" cy="39.59" r="1.15"/><path class="cls-2" d="M180.31,24.85V43.52h.08a3.06,3.06,0,0,0,3-2.62l2.34-16.39"/><circle class="cls-2" cx="192.62" cy="20.36" r="3.83"/><path class="cls-2" d="M190.53,12.19V28.54a3.8,3.8,0,0,0-3.8-3.8h-6.82a4.38,4.38,0,0,1,0-8.75h6.82A3.79,3.79,0,0,0,190.53,12.19Z"/><line class="cls-2" x1="182.61" y1="15.99" x2="182.61" y2="24.5"/><path class="cls-2" d="M191.58,30.3h0a1,1,0,0,1-1-1V11.18a1,1,0,0,1,1-1h0a1,1,0,0,1,1,1V29.26A1,1,0,0,1,191.58,30.3Z"/><line class="cls-5" x1="205.28" y1="9.3" x2="208.62" y2="6.76"/><line class="cls-5" x1="197.44" y1="15.27" x2="202.32" y2="11.55"/><line class="cls-5" x1="202.19" y1="16.55" x2="198.44" y2="18.45"/><line class="cls-5" x1="210.97" y1="12.09" x2="205.5" y2="14.87"/><line class="cls-5" x1="205.28" y1="31.1" x2="208.62" y2="33.65"/><line class="cls-5" x1="197.44" y1="25.13" x2="202.32" y2="28.85"/><line class="cls-5" x1="202.19" y1="23.86" x2="198.44" y2="21.96"/><line class="cls-5" x1="210.97" y1="28.31" x2="205.5" y2="25.53"/><line class="cls-1" x1="200.83" y1="20.22" x2="203.08" y2="20.22"/><line class="cls-1" x1="205.5" y1="20.22" x2="210.26" y2="20.22"/><line class="cls-1" x1="213.14" y1="20.25" x2="215.09" y2="20.25"/><circle class="cls-1" cx="164.49" cy="20.22" r="1.15"/><circle class="cls-1" cx="173.45" cy="31.68" r="1.15"/><circle class="cls-1" cx="154.62" cy="9.3" r="1.15"/><line class="cls-1" x1="154.09" y1="21.37" x2="150.1" y2="21.37"/><line class="cls-1" x1="174.3" y1="11.16" x2="170.31" y2="11.16"/><line class="cls-1" x1="194.91" y1="38.19" x2="190.92" y2="38.19"/><path class="cls-1" d="M102.28,279.69h-.09l1.78,11,8.63-7A15.31,15.31,0,0,0,102.28,279.69Z"/><path class="cls-1" d="M86,292H98.41l-2-12.32A15.5,15.5,0,0,0,86,292Z"/><path class="cls-1" d="M107.92,292h8.51a15.4,15.4,0,0,0-1.9-5.37Z"/><path class="cls-1" d="M101.21,309.86h.09l-1.84-11.38L90,305A15.34,15.34,0,0,0,101.21,309.86Z"/><path class="cls-1" d="M116.43,296.78H104l2,12.32A15.5,15.5,0,0,0,116.43,296.78Z"/><polyline class="cls-1" points="85.88 296.08 84.09 299.49 87.48 301.27"/><line class="cls-1" x1="85.77" y1="298.89" x2="98.17" y2="295.7"/><circle class="cls-1" cx="91.07" cy="321.7" r="1.67"/><line class="cls-1" x1="81.39" y1="312.87" x2="75.58" y2="312.87"/><line class="cls-1" x1="111.2" y1="315.8" x2="130.36" y2="315.8"/><line class="cls-1" x1="117.77" y1="309.93" x2="129.59" y2="309.93"/><path class="cls-2" d="M73.3,63.92a6.46,6.46,0,0,0-5.47,9.92l-1.88,1.88.18.2a3.24,3.24,0,0,0,4.28.26A6.47,6.47,0,1,0,73.3,63.92Z"/><path class="cls-2" d="M63.25,59.74a6.46,6.46,0,0,1,5.47,9.92l1.88,1.88-.18.2a3.24,3.24,0,0,1-4.28.26,6.47,6.47,0,1,1-2.89-12.26Z"/><path class="cls-2" d="M242.08,18.29a8.17,8.17,0,1,1-16.34,0c0-4.51,3.66-11.75,8.17-11.75S242.08,13.78,242.08,18.29Z"/><path class="cls-2" d="M238.4,6.16l.88-4.23A1.1,1.1,0,0,0,238,.56l-2.86.92a3.75,3.75,0,0,1-2.28,0L229.87.55a1.1,1.1,0,0,0-1.32,1.38l.88,4.23"/><path class="cls-2" d="M237.94,9h-8a1.41,1.41,0,0,1-1.41-1.41h0a1.41,1.41,0,0,1,1.41-1.41h8a1.41,1.41,0,0,1,1.41,1.41h0A1.41,1.41,0,0,1,237.94,9Z"/><text class="cls-10" transform="translate(231.51 21.02)">$</text><rect class="cls-2" x="276.75" y="48.81" width="20.45" height="16.9" rx="3.88" ry="3.88"/><line class="cls-2" x1="276.75" y1="61.22" x2="297.21" y2="61.22"/><path class="cls-2" d="M20.84,274.13a1.79,1.79,0,0,1-1.27-.52l-5.71-5.71a1.79,1.79,0,1,1,2.53-2.53l4.28,4.28,6.6-8.53a1.79,1.79,0,1,1,2.83,2.19l-7.84,10.14a1.79,1.79,0,0,1-1.3.69Z"/><rect class="cls-1" x="19.06" y="203.91" width="3.08" height="8.83" transform="translate(41.2 416.64) rotate(180)"/><rect class="cls-1" x="13.07" y="201.51" width="3.08" height="11.22" transform="translate(29.21 414.25) rotate(180)"/><rect class="cls-1" x="7.07" y="198.96" width="3.08" height="13.77" transform="translate(17.22 411.7) rotate(180)"/><rect class="cls-1" x="1.08" y="195.08" width="3.08" height="17.66" transform="translate(5.23 407.81) rotate(180)"/><path class="cls-1" d="M1.23,186.42c5,5.89,9.66,11.16,20.92,11.16"/><polyline class="cls-1" points="4.83 186.42 1.23 186.42 1.23 190.01"/><path class="cls-1" d="M59.61,190.89a6.32,6.32,0,0,0-6.32,6.32c0,3.8,6.32,12.7,6.32,12.7s6.32-9,6.32-12.7A6.32,6.32,0,0,0,59.61,190.89Zm0,8A2.37,2.37,0,1,1,62,196.49,2.37,2.37,0,0,1,59.61,198.86Z"/><path class="cls-1" d="M61.17,98.83a6.32,6.32,0,0,0-6.32,6.32c0,3.8,6.32,12.7,6.32,12.7s6.32-9,6.32-12.7A6.32,6.32,0,0,0,61.17,98.83Zm0,8a2.37,2.37,0,1,1,2.37-2.37A2.37,2.37,0,0,1,61.17,106.8Z"/><path class="cls-1" d="M42.55,245.09a6.32,6.32,0,0,0-6.32,6.32c0,3.8,6.32,12.7,6.32,12.7s6.32-9,6.32-12.7A6.32,6.32,0,0,0,42.55,245.09Zm0,8a2.37,2.37,0,1,1,2.37-2.37A2.37,2.37,0,0,1,42.55,253.06Z"/><circle class="cls-2" cx="65.87" cy="153.64" r="12.34"/><circle class="cls-2" cx="65.87" cy="153.64" r="9.06"/><line class="cls-1" x1="65.87" y1="141.3" x2="65.87" y2="144.58"/><line class="cls-1" x1="57.97" y1="149.21" x2="55.22" y2="147.4"/><line class="cls-1" x1="56.81" y1="145.26" x2="59.13" y2="147.57"/><text class="cls-11" transform="translate(62.76 156.37)">%</text><path class="cls-1" d="M142.17,299.18v1.37a2.25,2.25,0,0,0,2.25,2.25H159.1"/><path class="cls-1" d="M146.41,299.18V282.5h14.71v18.27a2,2,0,0,1-2,2h0a2,2,0,0,1-2-2v-1.6H142.17"/><rect class="cls-2" x="10.13" y="130.61" width="32.95" height="19.92" rx="3.59" ry="3.59"/><line class="cls-1" x1="13.78" y1="138.3" x2="22.31" y2="138.3"/><line class="cls-1" x1="26.29" y1="138.3" x2="32.59" y2="138.3"/><line class="cls-1" x1="36.6" y1="138.3" x2="39.75" y2="138.3"/><rect class="cls-1" x="14.44" y="135" width="5.9" height="5.9"/><line class="cls-1" x1="18.37" y1="135" x2="18.37" y2="137.33"/><line class="cls-1" x1="16.25" y1="137.95" x2="16.25" y2="140.28"/><line class="cls-1" x1="39.63" y1="130.61" x2="39.63" y2="150.53"/><path class="cls-1" d="M71.43,242.35,72.58,245a2.37,2.37,0,0,0,2.05,1.42,1.84,1.84,0,0,1,3.25.23l1.12,2.6a1.85,1.85,0,0,1-1,2.42l-.6.26a5.39,5.39,0,0,1-7.06-2.81l-3.47-8a5.39,5.39,0,0,1,2.81-7.06l.6-.26a1.85,1.85,0,0,1,2.42,1l1.12,2.6a1.83,1.83,0,0,1-2.07,2.52A2.37,2.37,0,0,0,71.43,242.35Z"/><circle class="cls-1" cx="41.72" cy="102.05" r="1.82"/><circle class="cls-1" cx="20.46" cy="95.28" r="1.56"/><polygon class="cls-1" points="20 85.78 34.76 85.78 37.01 76.26 17.68 76.26 20 85.78"/><path class="cls-1" d="M34.22,96,32,93.73H19.59a1.91,1.91,0,0,1-1.91-1.91h0a1.91,1.91,0,0,1,1.91-1.91H33.78l4.81-20.34h4.68"/><line class="cls-1" x1="36.22" y1="79.31" x2="23.87" y2="79.31"/><line class="cls-1" x1="35.53" y1="82.5" x2="27.34" y2="82.5"/><path class="cls-1" d="M64.3,276.68l2.45-.33-.39-2.86-2.44.33c-.08-.25-.18-.49-.28-.72l2-1.42L64,269.31l-2,1.42c-.18-.18-.38-.35-.58-.51L62.53,268,60,266.69l-1.14,2.19a7.87,7.87,0,0,0-1.11-.24V266h-2.9v2.79A8.21,8.21,0,0,0,54,269l-1.27-2.12-2.49,1.47,1.26,2.13c-.19.17-.37.35-.55.54l-2.1-1.3-1.53,2.45,2.1,1.3a7.31,7.31,0,0,0-.24.74L46.74,274l-.22,2.88,2.45.19a7.5,7.5,0,0,0,.13.77l-2.27,1L48,281.51l2.26-1c.15.22.3.43.47.63l-1.57,1.9,2.23,1.84,1.57-1.9a7.41,7.41,0,0,0,.7.34l-.51,2.41,2.82.6.52-2.41h.17a6,6,0,0,0,.6,0l.65,2.38,2.79-.76L60,283.16a6.74,6.74,0,0,0,.68-.38l1.68,1.81,2.12-2-1.68-1.81c.15-.2.3-.43.43-.65l2.33.84,1-2.72-2.33-.84A7.77,7.77,0,0,0,64.3,276.68Zm-7.68,3.68a4.1,4.1,0,1,1,4.1-4.1A4.1,4.1,0,0,1,56.63,280.36Z"/><circle class="cls-1" cx="56.63" cy="276.26" r="4.1"/><circle class="cls-1" cx="51.33" cy="163.24" r="1.25"/><circle class="cls-1" cx="30.91" cy="178.93" r="1.25"/><circle class="cls-1" cx="75.63" cy="102.18" r="1.25"/><circle class="cls-1" cx="58.69" cy="222.67" r="1.25"/><circle class="cls-1" cx="51.33" cy="181.4" r="1.25"/><line class="cls-1" x1="21.61" y1="172.55" x2="7.25" y2="172.55"/><line class="cls-1" x1="16.69" y1="168.15" x2="7.83" y2="168.15"/><line class="cls-1" x1="43.25" y1="149.01" x2="38.9" y2="149.01"/><line class="cls-1" x1="45.56" y1="105.72" x2="41.21" y2="105.72"/><line class="cls-1" x1="20.18" y1="224.75" x2="15.83" y2="224.75"/><line class="cls-1" x1="84.5" y1="57.26" x2="80.15" y2="57.26"/><line class="cls-1" x1="75" y1="262.15" x2="70.64" y2="262.15"/><line class="cls-1" x1="51.51" y1="175.38" x2="65.87" y2="175.38"/><line class="cls-1" x1="56.43" y1="170.98" x2="65.29" y2="170.98"/><rect class="cls-2" x="95.49" y="36.31" width="9.86" height="5.37"/><rect class="cls-2" x="89.35" y="41.68" width="22.13" height="4.4" rx="1.66" ry="1.66"/><path class="cls-2" d="M136.16,75.54a1.77,1.77,0,0,1-1.25-.52l-5.64-5.64a1.77,1.77,0,0,1,2.5-2.5L136,71.1l6.52-8.42a1.77,1.77,0,1,1,2.8,2.16l-7.75,10a1.77,1.77,0,0,1-1.29.68Z"/><line class="cls-1" x1="91.4" y1="76.53" x2="87.31" y2="79.13"/><line class="cls-1" x1="115.14" y1="67.04" x2="108.71" y2="67.04"/><line class="cls-1" x1="120.94" y1="42.62" x2="142.14" y2="42.62"/><line class="cls-1" x1="128.21" y1="36.12" x2="141.29" y2="36.12"/></g></g></g></svg>